<svg xmlns="http://www.w3.org/2000/svg" xmlns:xlink="http://www.w3.org/1999/xlink" width="841.663" height="522.307" viewBox="0 0 841.663 522.307">
  <defs>
    <linearGradient id="linear-gradient" x1="0.5" x2="0.5" y2="1" gradientUnits="objectBoundingBox">
      <stop offset="0" stop-color="#d9f028"/>
      <stop offset="0.512" stop-color="#ffdde3"/>
      <stop offset="1" stop-color="#69b8d9"/>
    </linearGradient>
  </defs>
  <path id="Tracé_380" data-name="Tracé 380" d="M5960.03,1424.214a7.5,7.5,0,0,1-7.423-6.494c-.441-3.249-46.879-324.976-290.486-330.37-121.112-2.678-206.025,51.045-280.937,98.447-52,32.906-99.229,62.782-147.458,62.787-23.2,0-46.615-6.906-70.926-23.71-24.913-17.221-37.333-39.332-36.914-65.72,1.7-107.311,220.966-250.025,230.3-256.048a7.5,7.5,0,0,1,8.133,12.6c-2.218,1.432-221.864,144.348-223.435,243.687-.338,21.362,9.621,38.744,30.445,53.138,66.691,46.1,126.33,8.364,201.833-39.413,72.909-46.134,163.658-103.549,289.29-100.768,256.449,5.678,304.563,339.98,305.019,343.357a7.506,7.506,0,0,1-7.442,8.5Z" transform="translate(-5125.877 -901.907)" fill="url(#linear-gradient)"/>
</svg>
