<svg id="Groupe_60" data-name="Groupe 60" xmlns="http://www.w3.org/2000/svg" xmlns:xlink="http://www.w3.org/1999/xlink" width="1340" height="259.547" viewBox="0 0 1340 259.547">
  <defs>
    <clipPath id="clip-path">
      <rect id="Rectangle_24" data-name="Rectangle 24" width="1340" height="259.547" fill="none"/>
    </clipPath>
  </defs>
  <g id="Groupe_59" data-name="Groupe 59" clip-path="url(#clip-path)">
    <path id="Tracé_188" data-name="Tracé 188" d="M336.558,32.448a19.675,19.675,0,0,1,13.8,3.59c3.442,2.578,6.694,6.808,7.729,13.738,2.487,16.631-3.558,21.067,5.758,27.53s14.76,2.774,20.364,18.338-4.089,36-23.126,31.359-65.141-18.425-65.141-18.425l-.488-68.639,23.378-5.688Z" transform="translate(96.104 10.518)"/>
    <path id="Tracé_189" data-name="Tracé 189" d="M304.628,80.009s-20.815,2.977-34.29,27.477-24.792,92.05-22.727,94.183,47.015,8.532,84.282,8.532,48.946-1.422,52.54-3.554S387.1,89.184,366.466,80.009s-39.692-7.337-61.837,0" transform="translate(80.462 24.005)" fill="#6876aa"/>
    <path id="Tracé_190" data-name="Tracé 190" d="M298.173,80.924s-32.7,51.266-39.159,84.438-7.714,56.654-7.714,56.654l118.821.737,2.126-90.251-12.54-53.455-34.652-4.7Z" transform="translate(81.741 24.182)" fill="#f7b369"/>
    <path id="Tracé_191" data-name="Tracé 191" d="M298.02,79.309s-16.679,61.721-20.2,83.283a380.076,380.076,0,0,0-4.251,42.168l-21.8-3.256,8.325-50.608,29.756-64.754Z" transform="translate(81.893 25.797)" fill="#6876aa"/>
    <path id="Tracé_192" data-name="Tracé 192" d="M282.608,52.25s-8.857-15.174-7.982-21.591c2.159-15.822,24.688-26.278,46.74-18.265s25.921,35.74,22.157,47.679c-9.693,30.744-36.454,19.338-36.454,19.338s-41.822-8.836-24.461-27.161" transform="translate(89.309 3.134)"/>
    <path id="Tracé_193" data-name="Tracé 193" d="M285.633,68.479l.03.576.986,10.851.738,8.51s-.637,2.016,9.258.916c13.258-1.527,17.283-7.437,17.283-7.437l-.354-20.012-4,.954Z" transform="translate(92.909 20.129)" fill="#f48462"/>
    <path id="Tracé_194" data-name="Tracé 194" d="M285.656,68.811l.986,10.851c6.426-1.083,18.062-4.422,22.345-14.809a8.271,8.271,0,0,0,.586-2.22l-23.884,6.01Z" transform="translate(92.916 20.373)"/>
    <path id="Tracé_195" data-name="Tracé 195" d="M282.448,30.346s-11.066,28.88-5.876,44.581,19.565,12.529,28.093,9.054,12.309-8.976,12.309-8.976a12.235,12.235,0,0,0,13.3-5.407c5.07-7.782,1.337-16.277-3.379-18.045s-10.06,1.822-10.06,1.822l3.931-8.426S300.7,3.972,282.448,30.346" transform="translate(89.511 6.992)" fill="#f48462"/>
    <path id="Tracé_196" data-name="Tracé 196" d="M312.055,79.309s-29.448,1.168-54.112,23.671-60.415,77.567-46.006,97.152C233.1,228.9,278.644,220.1,278.644,220.1l2.109-46.807,12.268-67.938Z" transform="translate(67.859 25.797)" fill="#6876aa"/>
    <path id="Tracé_197" data-name="Tracé 197" d="M283.226,58.564a.863.863,0,0,1-.81-.565c-2.184-5.935,1.745-12.3,1.912-12.566a.863.863,0,0,1,1.462.917c-.036.06-3.644,5.923-1.755,11.053a.863.863,0,0,1-.81,1.161" transform="translate(91.648 14.647)"/>
    <path id="Tracé_198" data-name="Tracé 198" d="M308.221,58.011a.862.862,0,0,1-.657-1.421l7.259-8.552a.862.862,0,0,1,1.315,1.116l-7.258,8.553a.861.861,0,0,1-.657.3" transform="translate(99.975 15.527)"/>
    <path id="Tracé_199" data-name="Tracé 199" d="M315.592,54.071c-.029,0-.057,0-.086,0l-5.359-.525a.863.863,0,0,1,.168-1.718l5.359.525a.863.863,0,0,1-.082,1.722" transform="translate(100.629 16.855)"/>
    <path id="Tracé_200" data-name="Tracé 200" d="M291.12,63.409a8.606,8.606,0,0,1-5.165-2.185.861.861,0,0,1,.269-1.438l10.87-4.261a.862.862,0,0,1,1.154,1,10.463,10.463,0,0,1-4.547,6.2,5.153,5.153,0,0,1-2.582.685m-2.786-2.6a4.536,4.536,0,0,0,4.515.412,7.921,7.921,0,0,0,3.049-3.377Z" transform="translate(92.923 18.041)"/>
    <path id="Tracé_201" data-name="Tracé 201" d="M297.1,39.892a.864.864,0,0,1-.746-.428c-1.431-2.453-4.857-1.573-5-1.535a.862.862,0,0,1-.452-1.665c.2-.056,4.843-1.27,6.943,2.33a.862.862,0,0,1-.745,1.3" transform="translate(94.418 11.718)"/>
    <path id="Tracé_202" data-name="Tracé 202" d="M279.06,38.215a.862.862,0,0,1-.606-1.476c.091-.09,2.257-2.195,4.725-2.034a4.177,4.177,0,0,1,3.08,1.781.863.863,0,0,1-1.372,1.048,2.5,2.5,0,0,0-1.825-1.108c-1.692-.134-3.382,1.527-3.4,1.544a.859.859,0,0,1-.6.245" transform="translate(90.49 11.285)"/>
    <path id="Tracé_203" data-name="Tracé 203" d="M280.875,48.749c-.027,0-.054,0-.081,0a.862.862,0,0,1-.779-.938l.461-4.925-1.885-2.1a.862.862,0,0,1,1.283-1.153l2.138,2.378a.862.862,0,0,1,.217.656l-.5,5.3a.862.862,0,0,1-.857.782" transform="translate(90.546 12.798)"/>
    <path id="Tracé_204" data-name="Tracé 204" d="M293,49.165a.877.877,0,0,1-.861-.926l.365-4.882L289.724,40.9a.863.863,0,1,1,1.145-1.292l3.093,2.741a.864.864,0,0,1,.288.71l-.395,5.308a.862.862,0,0,1-.859.8" transform="translate(94.145 12.813)"/>
    <path id="Tracé_205" data-name="Tracé 205" d="M317.887,32.615S314.863-1.336,338.039,2.36c24.555,3.915,1.378,43.1-14.317,40.958-6.987-.956-5.835-10.7-5.835-10.7" transform="translate(103.358 0.676)"/>
    <path id="Tracé_206" data-name="Tracé 206" d="M302.33,136.535s-7.871-41.22-11.929-45.684S259.647,74.6,256.246,77.845s.058,7.317.058,7.317-5.076-2.9-6.987.137,1.793,7.756,1.793,7.756-4.047-2.549-3.511,3.1,11.619,15.987,11.619,15.987a60.147,60.147,0,0,0,7.736,23.956c7.1,12.41,28.7,12.965,28.7,12.965Z" transform="translate(80.522 25.14)" fill="#f48462"/>
    <path id="Tracé_207" data-name="Tracé 207" d="M275.581,94.851a.836.836,0,0,1-.4-.1L254.022,83.717a.862.862,0,0,1,.8-1.529L275.98,93.225a.862.862,0,0,1-.4,1.626" transform="translate(82.476 26.701)"/>
    <path id="Tracé_208" data-name="Tracé 208" d="M271.153,103.221a.854.854,0,0,1-.457-.133l-20.7-12.961a.863.863,0,0,1,.914-1.463l20.7,12.963a.863.863,0,0,1-.459,1.594" transform="translate(81.184 28.797)"/>
    <path id="Tracé_209" data-name="Tracé 209" d="M291.949,85.729a33.894,33.894,0,0,1-5.212-.356.863.863,0,0,1,.285-1.7c.141.024,14.325,2.272,25.026-5.818a.862.862,0,0,1,1.04,1.376c-7.251,5.48-15.785,6.5-21.139,6.5" transform="translate(93.034 25.267)" fill="#465884"/>
    <path id="Tracé_210" data-name="Tracé 210" d="M262.193,152.428s35.277,74.366,89.63,70.243S402.072,122.812,385,98.549,343.7,74.6,343.7,74.6l-22.19,62.378L303.355,121.5Z" transform="translate(85.284 24.264)" fill="#6876aa"/>
    <path id="Tracé_211" data-name="Tracé 211" d="M313.183,74.345s-30.5,133.838-24.639,134.534,52.212,2.942,52.212,2.942L335.373,74.676Z" transform="translate(93.612 24.182)" fill="#6876aa"/>
    <path id="Tracé_212" data-name="Tracé 212" d="M329.488,38.67a.861.861,0,0,1-.859-.8c-1.105-14.831-10.888-20.338-10.988-20.392a.862.862,0,1,1,.827-1.513c.437.237,10.707,6.019,11.88,21.778a.861.861,0,0,1-.8.924.544.544,0,0,1-.065,0" transform="translate(103.174 5.158)" fill="#f7b369"/>
    <path id="Tracé_213" data-name="Tracé 213" d="M343.844,156.622a.868.868,0,0,1-.588-.232l-43.941-40.967a.863.863,0,0,1,1.177-1.263l43.941,40.967a.864.864,0,0,1-.588,1.495" transform="translate(97.27 37.058)" fill="#465884"/>
    <path id="Tracé_214" data-name="Tracé 214" d="M339.9,138.081c-8.437,0-20.185-3.418-20.841-3.613a.861.861,0,0,1,.042-1.665c2.439-.587,23.976-5.611,28.527-1.581a2.806,2.806,0,0,1,.958,2.518,3.953,3.953,0,0,1-1.855,2.934c-1.541,1.02-4,1.406-6.83,1.406m-17.017-4.363c7.1,1.788,19.061,4.059,22.894,1.517a2.266,2.266,0,0,0,1.095-1.692,1.092,1.092,0,0,0-.388-1.028c-2.6-2.307-14.5-.726-23.6,1.2" transform="translate(103.581 42.179)" fill="#465884"/>
    <path id="Tracé_215" data-name="Tracé 215" d="M293,19.383a23.1,23.1,0,0,0-4.282,11.722l-.655,7.282,29.986,9.537.966-14.6Z" transform="translate(93.699 6.305)"/>
    <path id="Tracé_216" data-name="Tracé 216" d="M293.585,25.156a15.791,15.791,0,0,0-3.984,5.321,78.551,78.551,0,0,0-2.68,9.195L278.2,38.478l1.366-15.239,11.97-6.935,7.106.971-1.34,9.8Z" transform="translate(90.492 5.303)"/>
    <path id="Tracé_217" data-name="Tracé 217" d="M477.993,74.866s33.777,12.549,65.575,14.489c27.529,1.68,64.823-11.22,64.823-11.22l22.094,47.886s-71.791,57.708-116.28,33.467c-57.362-31.255-36.212-84.623-36.212-84.623" transform="translate(154.239 24.352)" fill="#69b8d9"/>
    <path id="Tracé_218" data-name="Tracé 218" d="M534.716,106.671a3.332,3.332,0,0,1-2.433-1.05c-3.7-3.793-2.045-17.459-1.843-19a.863.863,0,0,1,1.614-.3c.794,1.466,7.7,14.443,5.406,18.794a2.872,2.872,0,0,1-2.36,1.543,3.747,3.747,0,0,1-.383.02m-2.857-16.96c-.388,4.906-.484,12.508,1.661,14.705a1.613,1.613,0,0,0,1.4.518,1.159,1.159,0,0,0,1.011-.631c1.2-2.266-1.5-9.322-4.074-14.593" transform="translate(172.362 27.929)" fill="#f7b369"/>
    <path id="Tracé_219" data-name="Tracé 219" d="M578.943,86.269s6.365-13.5,15.4-18.294,18.951-6.967,16.1-1.552-10.207,13.665-10.207,13.665l14.6-.606a122.2,122.2,0,0,1,16.83-2.465c6.914-.288,7.9,4.968,7.9,4.968s6.914-.288,9.329,2.26-.512,6.2-.512,6.2,9.329,2.261,4.206,8.653-26.34,14.334-36.254,16.512-30.767.4-30.767.4-19.069-.066-6.622-29.738" transform="translate(186.943 20.573)" fill="#f48462"/>
    <path id="Tracé_220" data-name="Tracé 220" d="M620.922,96.364a.861.861,0,0,1-.563-.209L599.3,78.023a.863.863,0,0,1,1.125-1.308l21.056,18.132a.863.863,0,0,1-.563,1.516" transform="translate(194.84 24.885)"/>
    <path id="Tracé_221" data-name="Tracé 221" d="M579.351,93.664a.862.862,0,0,1-.03-1.724c7.659-.272,12.972-2.253,15.789-5.891a10.777,10.777,0,0,0,2.037-8.226.862.862,0,1,1,1.684-.371,12.431,12.431,0,0,1-2.358,9.655c-3.147,4.061-8.9,6.267-17.092,6.556h-.03" transform="translate(188.167 24.973)"/>
    <path id="Tracé_222" data-name="Tracé 222" d="M591.7,130.834,565.427,83.828a2.522,2.522,0,0,1,.97-3.43l11.069-6.186a2.521,2.521,0,0,1,3.43.97l26.273,47.006a2.521,2.521,0,0,1-.97,3.43L595.13,131.8a2.519,2.519,0,0,1-3.429-.97" transform="translate(183.814 24.035)" fill="#f7b369"/>
    <path id="Tracé_223" data-name="Tracé 223" d="M694.411,73.468s3.37.842,4.173,2.1.584,6.261.584,6.261,34.429,3.322,69.2,42.627c35.174,39.765,39.717,63.555,28.089,80.893-15.359,22.9-68.22,16.72-68.22,16.72s-12.741,1.871-58.1,1.178c-41.909-.64-65.283-1.178-65.283-1.178s-72.184,17.4-66.433-30.4c7.627-63.39,83.686-104.055,98.39-109.843a79.717,79.717,0,0,1,25.406-5.359s.661-2.438,1.386-2.86c3.875-2.25,30.814-.143,30.814-.143" transform="translate(175.026 23.606)" fill="#a37b90"/>
    <path id="Tracé_224" data-name="Tracé 224" d="M962.471,17.464s33.4,37.249,26.393,79.744c-6.326,38.369-62.9,21.692-62.9,21.692l-27.045-6.413s-9.35-22.565,4.356-44.305,59.195-50.718,59.195-50.718" transform="translate(291.382 5.681)"/>
    <path id="Tracé_225" data-name="Tracé 225" d="M981.645,220.807S979.73,89.094,972.671,81.346s-50.2-15.94-75.044,2.6c-15.551,11.6-20.233,64.868-15.551,98.355,4.059,29.021,5.695,40.2,5.695,40.2Z" transform="translate(286.352 23.641)" fill="#465884"/>
    <path id="Tracé_226" data-name="Tracé 226" d="M120.139,75.429s-27.4-1.748-43.093,12.289S53.356,220.367,53.356,220.367s44.11.733,72.809,1.549c20.88.594,58.258-1.549,58.258-1.549S172.595,98.9,165.77,84.062s-45.63-8.633-45.63-8.633" transform="translate(17.355 24.116)" fill="#f7b369"/>
    <path id="Tracé_227" data-name="Tracé 227" d="M475.152,13.24s-32.9-9.281-47.046,23.168-2.9,121.774-2.9,121.774l73.1-14.1-9.01-71.968Z" transform="translate(136.928 3.907)"/>
    <path id="Tracé_228" data-name="Tracé 228" d="M462.752,70.616s-43.458,11.424-50.44,33.348,23.33,114.016,32.8,117.829,90.031-.28,90.031-.28,5.476-64.2,4.294-72.027-5.915-39.155-14.632-52.975-31.99-24.492-41.7-25.225-20.359-.669-20.359-.669" transform="translate(133.778 22.969)" fill="#69b8d9"/>
    <path id="Tracé_365" data-name="Tracé 365" d="M5,0H1335a5,5,0,0,1,5,5V25.017a5,5,0,0,1-5,5H5a5,5,0,0,1-5-5V5A5,5,0,0,1,5,0Z" transform="translate(0 229.529)"/>
    <path id="Tracé_229" data-name="Tracé 229" d="M444.947,57.28l.513,23.225s4.335,6.583,17.947,7.387c10.14.6,13.644-1.767,13.644-1.767l-1.67-11.731-1.645-11.44L449.083,58.1Z" transform="translate(144.729 18.632)" fill="#f48462"/>
    <path id="Tracé_230" data-name="Tracé 230" d="M448.068,57.9a7.633,7.633,0,0,0,.725,2.226c5.452,11.486,19.715,13.674,25.573,14.068l-1.645-11.44Z" transform="translate(145.745 18.833)"/>
    <path id="Tracé_231" data-name="Tracé 231" d="M481.86,23.573s12.831,28.85,8.384,45.135-19.273,13.823-28.155,10.74-13.03-8.491-13.03-8.491a12.494,12.494,0,0,1-13.845-4.8c-5.587-7.66-2.236-16.522,2.477-18.578S448.045,48.9,448.045,48.9l-4.459-8.38s18.25-42.853,38.275-16.945" transform="translate(140.615 4.96)" fill="#f48462"/>
    <path id="Tracé_232" data-name="Tracé 232" d="M445.948,49.926s12.435,2.549,21.12-11.271,7.908-19.508,7.908-19.508l8.568,14.32s1.955-9.905-1.989-16.236-8.064-5.032-8.064-5.032L446.036,18.97l-7.29,21.966Z" transform="translate(142.712 3.932)"/>
    <path id="Tracé_233" data-name="Tracé 233" d="M443.788,79.309s-64.4,31.651-57.174,93.22c7.22,61.531,84.468,52.847,113.37,46.157s6.361-50.6,6.361-50.6-10.92,3.81-38.956-.97-23.6-87.806-23.6-87.806" transform="translate(125.571 25.797)" fill="#69b8d9"/>
    <path id="Tracé_234" data-name="Tracé 234" d="M437.828,146.7a.833.833,0,0,1-.1-.007c-6.247-.725-26.69-3.439-27.445-7.865-.3-1.726,1.772-2.735,2.452-3.067,11.063-5.4,25.118,8.865,25.712,9.476a.862.862,0,0,1-.619,1.463m-19.7-10.421a10.438,10.438,0,0,0-4.638,1.032c-1.3.635-1.529,1.1-1.508,1.225.342,2.005,11.9,4.617,23.3,6.116-3.332-2.914-10.467-8.373-17.157-8.373" transform="translate(133.445 43.764)" fill="#f7b369"/>
    <path id="Tracé_235" data-name="Tracé 235" d="M472.888,29.493a.827.827,0,0,1-.2-.025l-2.674-.648a.863.863,0,1,1,.407-1.676l2.673.649a.862.862,0,0,1-.2,1.7" transform="translate(152.667 8.821)"/>
    <path id="Tracé_236" data-name="Tracé 236" d="M460.135,31.946a.863.863,0,0,1-.334-1.658l6.218-2.612a.863.863,0,0,1,.667,1.592l-6.217,2.611a.85.85,0,0,1-.334.068" transform="translate(149.389 8.98)"/>
    <path id="Tracé_237" data-name="Tracé 237" d="M470.1,51.462a.863.863,0,0,1-.623-1.46c4.022-4.193-1-11.831-1.055-11.908a.863.863,0,0,1,1.434-.961c.241.359,5.848,8.869.867,14.064a.862.862,0,0,1-.623.265" transform="translate(152.317 11.954)"/>
    <path id="Tracé_238" data-name="Tracé 238" d="M446.875,53.177a.857.857,0,0,1-.565-.211L436.5,44.479a.862.862,0,0,1,1.129-1.3l9.814,8.487a.863.863,0,0,1-.565,1.515" transform="translate(141.884 13.975)"/>
    <path id="Tracé_239" data-name="Tracé 239" d="M436.555,52.187a.862.862,0,0,1-.36-1.646l7.123-3.287a.862.862,0,1,1,.721,1.566l-7.123,3.287a.844.844,0,0,1-.36.08" transform="translate(141.719 15.345)"/>
    <path id="Tracé_240" data-name="Tracé 240" d="M445.522,72.661s-2.749.281-3.073,2.005,10.336,31.127,18.653,33.765,14.82-23.337,15.217-22.9,15.3,11.518,16.905,11.163-5.308-13.108-9.652-18.118a42.881,42.881,0,0,0-7.093-6.879s.52,6.074.477,7.371-5.2,4.168-14.346,2.69c-13.084-2.114-17.088-9.1-17.088-9.1" transform="translate(143.914 23.322)" fill="#f7b369"/>
    <path id="Tracé_241" data-name="Tracé 241" d="M461.388,42.855a.861.861,0,0,1-.856-.779l-.569-5.9a.86.86,0,0,1,.322-.759l3.374-2.676a.862.862,0,1,1,1.071,1.352l-3.006,2.384.522,5.438a.86.86,0,0,1-.774.941c-.029,0-.056,0-.085,0" transform="translate(149.612 10.588)"/>
    <path id="Tracé_242" data-name="Tracé 242" d="M473.062,41.4a.861.861,0,0,1-.856-.779l-.569-5.9a.865.865,0,0,1,.3-.743l2.567-2.166a.863.863,0,0,1,1.113,1.319L473.4,35l.523,5.455a.86.86,0,0,1-.774.941c-.029,0-.056,0-.085,0" transform="translate(153.41 10.281)"/>
    <path id="Tracé_243" data-name="Tracé 243" d="M510.145,149.992c-.031,0-.064,0-.1-.005a.863.863,0,0,1-.763-.953c4.255-38.8-12.971-50.892-13.144-51.008a.862.862,0,0,1,.958-1.434c.749.5,18.282,12.691,13.9,52.632a.864.864,0,0,1-.856.769" transform="translate(161.258 31.371)" fill="#f7b369"/>
    <path id="Tracé_244" data-name="Tracé 244" d="M471.617,147.341a.624.624,0,0,1-.07,0l-40.343-3.2a.863.863,0,0,1-.792-.928.84.84,0,0,1,.928-.791l40.345,3.2a.863.863,0,0,1-.068,1.723" transform="translate(140.001 46.323)" fill="#f7b369"/>
    <path id="Tracé_245" data-name="Tracé 245" d="M465.033,58.307a5.345,5.345,0,0,1-1.612-.254c-4.18-1.312-4.152-6.273-4.148-6.483a.864.864,0,0,1,.354-.684.877.877,0,0,1,.758-.129l9.623,2.917a.861.861,0,0,1,.477,1.288c-.1.158-2.173,3.345-5.452,3.345m-3.914-5.525a4.39,4.39,0,0,0,2.82,3.625,4.284,4.284,0,0,0,4.346-1.452Z" transform="translate(149.389 16.498)"/>
    <path id="Tracé_246" data-name="Tracé 246" d="M828.589,165.313s23.172-16.433,36.974-28.075,44.047-54.3,56.291-59.006S907.7,188.35,907.7,188.35s-37.365,28.691-64.968,12.891-14.139-35.928-14.139-35.928" transform="translate(268.45 25.401)" fill="#465884"/>
    <path id="Tracé_247" data-name="Tracé 247" d="M150.957,79.39s15.25,7.8,35.247,45.151c18.29,34.168,26.586,71.737,8.873,82.953C149.9,236.094,92.658,193.91,92.658,193.91Z" transform="translate(30.139 25.823)" fill="#f7b369"/>
    <path id="Tracé_248" data-name="Tracé 248" d="M118.793,40.51s22.2,3.324,25.628-17.943c3.65-22.641-17.2-26.956-27.083-18.653s-9.172,17.837-9.172,17.837S102.5,15.5,94.993,21.713c-5.507,4.563-3.769,13.11-3.769,13.11s-11.461-1.608-11.405,8.548a22.541,22.541,0,0,0,6.726,15.983Z" transform="translate(25.963 0)"/>
    <path id="Tracé_249" data-name="Tracé 249" d="M90.849,58.732,90.768,82.67s4.294,6.9,18.294,8.082c10.43.883,14.1-1.463,14.1-1.463L121.752,77.16l-1.394-11.828L95.088,59.685Z" transform="translate(29.524 19.104)" fill="#f48462"/>
    <path id="Tracé_250" data-name="Tracé 250" d="M94.028,59.451a7.9,7.9,0,0,0,.688,2.313c5.317,11.975,19.952,14.6,25.975,15.162L119.3,65.1Z" transform="translate(30.585 19.338)"/>
    <path id="Tracé_251" data-name="Tracé 251" d="M130.011,24.745s12.463,30.056,7.453,46.715S117.247,85.2,108.178,81.786s-13.2-9.089-13.2-9.089a12.876,12.876,0,0,1-14.138-5.308c-5.554-8.038-1.87-17.077,3.039-19.073s10.633,1.63,10.633,1.63L90.137,41.2S110.062-2.47,130.011,24.745" transform="translate(25.391 5.144)" fill="#f48462"/>
    <path id="Tracé_252" data-name="Tracé 252" d="M92.628,53.587a.854.854,0,0,1-.5-.164L81.365,45.631a.863.863,0,1,1,1.011-1.4l10.759,7.793a.862.862,0,0,1-.506,1.561" transform="translate(26.35 14.334)"/>
    <path id="Tracé_253" data-name="Tracé 253" d="M82.571,51.991a.863.863,0,0,1-.212-1.7l7.109-1.8a.863.863,0,0,1,.424,1.673l-7.107,1.8a.848.848,0,0,1-.213.027" transform="translate(26.578 15.764)"/>
    <path id="Tracé_254" data-name="Tracé 254" d="M102.312,33.076a.853.853,0,0,1-.529-.182.863.863,0,0,1-.152-1.21,7.371,7.371,0,0,1,9.3-2.385.863.863,0,0,1-.824,1.516,5.6,5.6,0,0,0-7.117,1.928.864.864,0,0,1-.683.333" transform="translate(32.999 9.282)"/>
    <path id="Tracé_255" data-name="Tracé 255" d="M122.573,33.721a.858.858,0,0,1-.551-.2,4.855,4.855,0,0,0-5.379-.563.862.862,0,1,1-.872-1.488,6.539,6.539,0,0,1,7.354.725.863.863,0,0,1-.551,1.525" transform="translate(37.518 9.971)"/>
    <path id="Tracé_256" data-name="Tracé 256" d="M115.9,55.624a.863.863,0,0,1-.826-1.112,18.217,18.217,0,0,0-2.014-15.169.862.862,0,0,1,1.385-1.027,19.609,19.609,0,0,1,2.281,16.694.865.865,0,0,1-.826.614" transform="translate(36.721 12.35)"/>
    <path id="Tracé_257" data-name="Tracé 257" d="M120.088,41.621a.862.862,0,0,1-.832-.639l-1.48-5.495a.863.863,0,1,1,1.666-.449l1.48,5.5a.861.861,0,0,1-.608,1.056.831.831,0,0,1-.225.03" transform="translate(38.3 11.19)"/>
    <path id="Tracé_258" data-name="Tracé 258" d="M108.656,42.557a.862.862,0,0,1-.832-.637l-1.48-5.5a.863.863,0,1,1,1.666-.449l1.48,5.5a.863.863,0,0,1-.608,1.058.884.884,0,0,1-.225.029" transform="translate(34.581 11.494)"/>
    <path id="Tracé_259" data-name="Tracé 259" d="M130.968,33.107a10.105,10.105,0,0,0-8.555-4.882,12.912,12.912,0,0,0-9.473,4.134s2.587,10.064-5.552,15.378-14.416,3.8-14.416,3.8L87.09,49.418,82.8,40.8l17.1-18.3,22.092-11.567,11.2,10.24Z" transform="translate(26.932 3.554)"/>
    <path id="Tracé_260" data-name="Tracé 260" d="M112.471,76.053S72.016,69.006,47.061,107.7c-21.186,32.848-22.1,63.784-22.1,63.784l63.989-5.367Z" transform="translate(8.12 24.575)" fill="#f7b369"/>
    <path id="Tracé_261" data-name="Tracé 261" d="M24.968,174s-1.726,49.146,38.115,45.783c45.241-3.821,68.469-92.333,68.469-92.333l13.891-7.717s-3.227,10.781,7.851,5.544a16.373,16.373,0,0,0,9.6-16.4l-11.2-22.993s19.582-16.69,14.166-17.918c-8.366-1.9-35.786,14.722-35.786,14.722s2.106-10.884-4.126-9.437C119.218,74.809,115.664,94.9,115.664,94.9L40.489,171.147Z" transform="translate(8.118 22.057)" fill="#f48462"/>
    <path id="Tracé_262" data-name="Tracé 262" d="M116.083,109.747a.863.863,0,0,1-.681-1.393l5.338-6.862a.862.862,0,0,1,1.361,1.059l-3.337,4.29,4.566-1.889a.863.863,0,1,1,.66,1.594l-7.577,3.134a.873.873,0,0,1-.33.066" transform="translate(37.478 32.904)"/>
    <path id="Tracé_263" data-name="Tracé 263" d="M117.043,85.567a.862.862,0,0,1-.451-1.6l4.974-3.048a.863.863,0,1,1,.9,1.471l-4.975,3.048a.856.856,0,0,1-.449.127" transform="translate(37.79 26.28)"/>
    <path id="Tracé_264" data-name="Tracé 264" d="M111.783,88.447l26.706,37.945s-17.9,63.579-53.894,83.15-63.907-7.775-59.519-42.258,86.707-78.838,86.707-78.838" transform="translate(8.009 28.769)" fill="#f7b369"/>
    <path id="Tracé_265" data-name="Tracé 265" d="M112.911,58.114a.861.861,0,0,1-.444-.123l-5.483-3.3a.863.863,0,0,1,.889-1.479l5.483,3.3a.862.862,0,0,1-.445,1.6" transform="translate(34.663 17.269)"/>
    <path id="Tracé_266" data-name="Tracé 266" d="M107.088,83.1a.864.864,0,0,1-.766-1.262c.03-.058,3-5.919-.631-10.258-.57-.681-1.028-.7-1.325-.649-2.34.383-5.59,6.6-7.089,10.423a.862.862,0,1,1-1.606-.628c.432-1.107,4.348-10.831,8.417-11.5a3.056,3.056,0,0,1,2.926,1.243,10.534,10.534,0,0,1,1.716,9.853l8.417-4.726a.863.863,0,0,1,.846,1.5l-10.483,5.886a.863.863,0,0,1-.421.11" transform="translate(31.1 22.506)"/>
    <path id="Tracé_267" data-name="Tracé 267" d="M80.621,112.183s-15.834-1.207-23.359,1.423-22.29,20.831-20.229,23.785,7.135.429,7.135.429-3.095,6.784,3.159,6.978,33.294-32.615,33.294-32.615" transform="translate(11.982 36.4)" fill="#f48462"/>
    <path id="Tracé_268" data-name="Tracé 268" d="M178.553,143.425a.863.863,0,0,1-.47-.14C158.513,130.49,110.725,126,110.245,125.958a.863.863,0,0,1,.156-1.719c1.979.182,48.7,4.572,68.623,17.6a.863.863,0,0,1-.472,1.585" transform="translate(35.605 40.41)" fill="#fff"/>
    <path id="Tracé_269" data-name="Tracé 269" d="M122.338,127.91a.865.865,0,0,1-.718-.383L95.642,88.706,75.783,110.98a.864.864,0,0,1-1.288-1.15l20.6-23.1a.847.847,0,0,1,.7-.286.861.861,0,0,1,.657.382l26.6,39.745a.863.863,0,0,1-.716,1.344" transform="translate(24.16 28.116)" fill="#fff"/>
    <path id="Tracé_270" data-name="Tracé 270" d="M150.277,132.023a121.1,121.1,0,0,1-16.508-1.57.862.862,0,0,1-.2-1.646c.737-.311,18.062-7.543,23.616-1.278,1.091,1.229.956,2.151.651,2.709-.733,1.337-3.794,1.785-7.557,1.785m-12.956-2.795c9.929,1.339,18.3,1.458,19,.182.013-.025-.009-.264-.428-.737-3.255-3.672-12.739-1.447-18.571.555" transform="translate(43.275 40.654)" fill="#fff"/>
    <path id="Tracé_271" data-name="Tracé 271" d="M97.033,83.036a.9.9,0,0,1-.167-.016,8.218,8.218,0,0,1-6.515-6.762.863.863,0,0,1,1.71-.235,6.49,6.49,0,0,0,5.137,5.3.863.863,0,0,1-.164,1.71" transform="translate(29.386 24.486)" fill="#fff"/>
    <path id="Tracé_272" data-name="Tracé 272" d="M42.234,136.475a.863.863,0,0,1-.614-1.468l14.646-14.844a.863.863,0,0,1,1.229,1.211L42.847,136.218a.865.865,0,0,1-.614.257" transform="translate(13.457 39.002)"/>
    <path id="Tracé_273" data-name="Tracé 273" d="M656.014,40.932s15.715-6.709,16.938,5.46c1.418,14.1-15.431,14.228-15.431,14.228Z" transform="translate(213.384 12.714)" fill="#f48462"/>
    <path id="Tracé_274" data-name="Tracé 274" d="M662.13,52.638a.847.847,0,0,1-.433-.118.864.864,0,0,1-.311-1.179l5.245-8.989a.863.863,0,0,1,1.491.871l-5.245,8.988a.862.862,0,0,1-.746.428" transform="translate(215.093 13.636)"/>
    <path id="Tracé_275" data-name="Tracé 275" d="M698.361,110.939s-3.525,21.6,13.965,20.923,18.421-25.636,18.421-25.636Z" transform="translate(227.064 34.553)" fill="#f48462"/>
    <path id="Tracé_276" data-name="Tracé 276" d="M719.832,98.714S738.64,64.88,742.283,66.593s-45.12,75.205-47.3,74.157,24.853-42.036,24.853-42.036" transform="translate(226.017 21.641)" fill="#465884"/>
    <path id="Tracé_277" data-name="Tracé 277" d="M667.834,48.415l-4.5-.076a.861.861,0,0,1-.847-.876.85.85,0,0,1,.876-.848l4.483.074a.863.863,0,0,1-.015,1.725" transform="translate(215.49 15.163)"/>
    <path id="Tracé_278" data-name="Tracé 278" d="M634.669,67.115l-.133,16.5a34.759,34.759,0,0,0,14.334,3.566c10.751.183,14.379-6.194,14.379-6.194l-.081-19.346Z" transform="translate(206.398 20.051)" fill="#f48462"/>
    <path id="Tracé_279" data-name="Tracé 279" d="M634.636,66.707s5.151,13.357,17.357,11.534c9.837-1.471,12.65-15.421,12.65-15.421Z" transform="translate(206.43 20.434)"/>
    <path id="Tracé_280" data-name="Tracé 280" d="M673.415,33.5s6.893,30.2-1.759,43.578c-9.277,14.343-24.217,10.061-29.808,5.762a25.243,25.243,0,0,1-9.089-13.845s-10.368,2.065-13.824-6.39c-3.631-8.881,2.824-16.048,8.011-16.471s5.79.521,5.79.521l-1.521-9.485s31.526-35.04,42.2-3.67" transform="translate(200.979 6.651)" fill="#f48462"/>
    <path id="Tracé_281" data-name="Tracé 281" d="M629.981,52.6a.864.864,0,0,1-.562-.208l-8-6.862a.863.863,0,0,1,1.124-1.309l8,6.862a.863.863,0,0,1-.562,1.517" transform="translate(202.033 14.317)"/>
    <path id="Tracé_282" data-name="Tracé 282" d="M622.443,52.744a.863.863,0,0,1-.521-1.552l4.723-3.552a.863.863,0,1,1,1.038,1.378l-4.722,3.552a.856.856,0,0,1-.518.174" transform="translate(202.183 15.44)"/>
    <path id="Tracé_283" data-name="Tracé 283" d="M639.859,45.871a.86.86,0,0,1-.859-.812l-.3-5.08a.862.862,0,0,1,.81-.912.872.872,0,0,1,.912.81l.3,5.081a.862.862,0,0,1-.81.912h-.052" transform="translate(207.753 12.707)"/>
    <path id="Tracé_284" data-name="Tracé 284" d="M654.535,45.066a.86.86,0,0,1-.859-.812l-.3-5.081a.862.862,0,0,1,.81-.912.891.891,0,0,1,.912.811l.3,5.081a.862.862,0,0,1-.81.912h-.052" transform="translate(212.526 12.445)"/>
    <path id="Tracé_285" data-name="Tracé 285" d="M647.945,57.492a.906.906,0,0,1-.168-.016.865.865,0,0,1-.68-1.014,26.834,26.834,0,0,0-.987-13.778.862.862,0,0,1,1.6-.644A28.228,28.228,0,0,1,648.791,56.8a.864.864,0,0,1-.846.7" transform="translate(210.142 13.499)"/>
    <path id="Tracé_286" data-name="Tracé 286" d="M657.752,35.791a.853.853,0,0,1-.482-.148,8.22,8.22,0,0,0-4.933-.851.863.863,0,0,1-.231-1.71c.148-.021,3.747-.485,6.131,1.133a.862.862,0,0,1-.485,1.576" transform="translate(211.87 10.736)"/>
    <path id="Tracé_287" data-name="Tracé 287" d="M637.726,38.445a.846.846,0,0,1-.527-.182.863.863,0,0,1-.155-1.21c1.766-2.277,5.329-2.949,5.479-2.977a.862.862,0,0,1,.311,1.7c-.031.007-3.068.586-4.425,2.338a.863.863,0,0,1-.683.334" transform="translate(207.155 11.08)"/>
    <path id="Tracé_288" data-name="Tracé 288" d="M627.643,41.917s3.259,9.314,4.466,8.934-.826-15.067-4.334-15.661-.133,6.727-.133,6.727" transform="translate(203.68 11.435)"/>
    <path id="Tracé_289" data-name="Tracé 289" d="M631.537,48.49s10.4-1.39,17.125-7.149a26.933,26.933,0,0,0,7.65-11.5s4.458-.8,11.051,2.824,7.695,15.751,7.695,15.751,10.8-21.181,4.813-28.191-14.907-.5-14.907-.5.967-13.547-17.415-7.416S625.7,34.737,625.7,34.737s-6.389-.245-6.887,5.688a26.965,26.965,0,0,0,2.2,11.808,6.908,6.908,0,0,1,6.971-1.4l4.332,1.366Z" transform="translate(201.263 3.485)"/>
    <path id="Tracé_290" data-name="Tracé 290" d="M663.891,73.328s-3.251,3.715-11.479,4.689S636.325,73,636.325,73l-4.4,10.247,13.889,6.8,21.852-3.907-.921-9.873Z" transform="translate(205.547 23.746)" fill="#a37b90"/>
    <path id="Tracé_291" data-name="Tracé 291" d="M623.215,143.786a.856.856,0,0,1-.326-.065c-.343-.138-34.446-13.788-62.545-1.435a.862.862,0,1,1-.693-1.578c28.773-12.652,63.542,1.274,63.89,1.417a.863.863,0,0,1-.326,1.662" transform="translate(181.872 44.042)" fill="#92b4ea"/>
    <path id="Tracé_292" data-name="Tracé 292" d="M592.459,139.909a.879.879,0,0,1-.245-.036c-4.646-1.372-19.853-6.167-20.367-10.236a2.278,2.278,0,0,1,1.357-2.287c6.474-3.874,18.55,9.582,19.9,11.128a.863.863,0,0,1-.648,1.431M575.9,128.37a3.447,3.447,0,0,0-1.808.463c-.209.123-.557.366-.529.59.225,1.788,8.006,5.224,16.042,7.834-3.736-3.772-9.732-8.886-13.706-8.886" transform="translate(186.001 41.196)" fill="#92b4ea"/>
    <path id="Tracé_293" data-name="Tracé 293" d="M725.2,104.9s15.427-.525,11.29-7.934-31.52-12.994-35.132-4.976S725.2,104.9,725.2,104.9" transform="translate(228.025 28.644)" fill="#f48462"/>
    <path id="Tracé_294" data-name="Tracé 294" d="M723.18,114.322s15.427-.525,11.29-7.934-31.52-12.994-35.132-4.976,23.842,12.911,23.842,12.911" transform="translate(227.37 31.71)" fill="#f48462"/>
    <path id="Tracé_295" data-name="Tracé 295" d="M713.955,120.282a19.369,19.369,0,0,0,10.214-.7c2.91-1.07,5.326-2.935,3.349-6.128-3.953-6.384-28.385-10.226-31.257-2.994-2.142,5.393,10.911,8.559,17.694,9.82" transform="translate(226.399 34.657)" fill="#f48462"/>
    <path id="Tracé_296" data-name="Tracé 296" d="M727.565,100.729a.954.954,0,0,1-.135-.011l-21.045-3.284a.863.863,0,1,1,.266-1.706L727.7,99.013a.863.863,0,0,1-.133,1.716" transform="translate(229.531 31.134)"/>
    <path id="Tracé_297" data-name="Tracé 297" d="M724.183,110.435a.957.957,0,0,1-.135-.011L703,107.14a.863.863,0,0,1,.266-1.706l21.047,3.284a.863.863,0,0,1-.133,1.716" transform="translate(228.431 34.292)"/>
    <path id="Tracé_298" data-name="Tracé 298" d="M650.195,88.119a21.343,21.343,0,0,1-4.284-.451.863.863,0,0,1-.672-1.019.872.872,0,0,1,1.018-.672c11.8,2.427,17.27-6.557,17.324-6.648a.862.862,0,0,1,1.483.88,17.988,17.988,0,0,1-14.868,7.909" transform="translate(209.873 25.666)" fill="#92b4ea"/>
    <path id="Tracé_299" data-name="Tracé 299" d="M646.5,61.639c-1.789,0-4.587-.712-6.577-4.583a.863.863,0,1,1,1.535-.79c2.424,4.719,6.06,3.556,6.212,3.5a.863.863,0,0,1,.568,1.629,5.814,5.814,0,0,1-1.737.241" transform="translate(208.119 18.15)"/>
    <path id="Tracé_300" data-name="Tracé 300" d="M906.306,47.8s-6.263-14.6-5.065-21.01,26.594-25.26,47.877-15.023S971.5,50.163,966.53,61.743c-12.789,29.821-38.448,15.715-38.448,15.715s-41-13.039-21.777-29.654" transform="translate(293.1 2.857)"/>
    <path id="Tracé_301" data-name="Tracé 301" d="M907.583,64.77l-.028.58-.1,10.967-.114,8.6s-.839,1.955,9.182,1.845c13.432-.2,18.056-5.717,18.056-5.717l1.65-20.078-4.1.555Z" transform="translate(295.129 19.83)" fill="#f48462"/>
    <path id="Tracé_302" data-name="Tracé 302" d="M907.524,65.2l-.1,10.967c6.546-.44,18.534-2.62,23.866-12.591a8.307,8.307,0,0,0,.808-2.164L907.573,65.04Z" transform="translate(295.161 19.977)"/>
    <path id="Tracé_303" data-name="Tracé 303" d="M909.11,26.455s-13.978,27.816-10.353,44.061S917.1,85.025,925.986,82.4s13.228-7.757,13.228-7.757a12.318,12.318,0,0,0,13.858-4.083c5.858-7.285,2.97-16.168-1.576-18.412s-10.26.818-10.26.818l4.781-8.044S930.034,1.869,909.11,26.455" transform="translate(292.147 6.138)" fill="#f48462"/>
    <path id="Tracé_304" data-name="Tracé 304" d="M939.905,54.209s-12.136-6.959-16.212-16.129-4.033-13.668-4.033-13.668-2.1,5.789-6.7,6.958a34.652,34.652,0,0,1-7.426,1.193l-3.287,8.214,2.82-19.821s12.6-5.988,14.243-5.911,22.221,4.775,23.362,6.08S949.6,38.857,949.6,38.857l.111,7.3Z" transform="translate(293.478 4.894)"/>
    <path id="Tracé_305" data-name="Tracé 305" d="M925.806,163.409a62.274,62.274,0,0,1-11.633-3.907c-6.47-2.868-32.741-3.72-41.757-4.086s-31.917,9.06-29.482,12.171,23.427.75,23.427.75-18.057,13.5-15.761,16.807,8.96.444,8.96.444-5.668,3.988-.857,6.3,25.338-9.219,25.338-9.219-10.256,13.4-6.976,15.314,17.916-9.618,17.916-9.618,15.235,14.1,26.182,6.278S935.387,180,935.387,180Z" transform="translate(274.126 50.55)" fill="#f48462"/>
    <path id="Tracé_306" data-name="Tracé 306" d="M968.43,79.218s59.637,34.082,50.5,111.3C1012.6,244,895,228.392,895,228.392l-1.614-48.22s61.874-16.8,66.676-19.414c9.281-5.061,8.369-81.54,8.369-81.54" transform="translate(290.594 25.768)" fill="#465884"/>
    <path id="Tracé_307" data-name="Tracé 307" d="M634.636,119.113v-7.137a72.252,72.252,0,0,1,23.025-1.8,51.456,51.456,0,0,1,22.329,7.281,73.827,73.827,0,0,1,25.671-7.509c13.868-1.157,21.964,0,21.964,0l-1.509,9.163-49.222,9.439Z" transform="translate(206.43 35.597)" fill="#fff"/>
    <path id="Tracé_308" data-name="Tracé 308" d="M732.377,114.444,718.5,209.629H623.317l13.874-95.185Z" transform="translate(202.749 37.225)" fill="#68b6d8"/>
    <path id="Tracé_309" data-name="Tracé 309" d="M676.968,114.444l-11.753,95.185h-9.236l11.753-95.185Z" transform="translate(213.373 37.225)" fill="#53aac9"/>
    <path id="Tracé_310" data-name="Tracé 310" d="M609.786,159.063s13.453-28.793,15.605-30.844,27.228-10.57,30.639-10.4-1.945,7.767-4.629,9.91-6.148,4.461-6.148,4.461,18.771,0,20.515,3.173-3.284,6.1-3.284,6.1,6.718.571,4.309,4.885-20.831,9.134-20.831,9.134-3.517,18.313-15.914,22.652-18.193,3.112-18.193,3.112Z" transform="translate(198.347 38.322)" fill="#f48462"/>
    <path id="Tracé_311" data-name="Tracé 311" d="M625.929,131.074a.863.863,0,0,1-.079-1.723l14.351-1.339a.863.863,0,0,1,.16,1.719l-14.35,1.339c-.028,0-.054,0-.082,0" transform="translate(203.318 41.638)"/>
    <path id="Tracé_312" data-name="Tracé 312" d="M632.02,138.142a.863.863,0,0,1-.044-1.725l13.791-.728a.9.9,0,0,1,.908.818.864.864,0,0,1-.818.906l-13.791.728h-.046" transform="translate(205.299 44.136)"/>
    <path id="Tracé_313" data-name="Tracé 313" d="M369.8,136.646s10.59-37.234,14.529-36.4-26.768,83.519-29.133,83,14.6-46.6,14.6-46.6" transform="translate(115.462 32.604)" fill="#465884"/>
    <path id="Tracé_314" data-name="Tracé 314" d="M366.046,182.855c-2.246.895-13.9-46.8-13.9-46.8s-5.8-17.847-8.071-29.184c-1-4.951-1.309-8.674-.187-9.132.749-.29,2.164,2.871,3.952,8.154,7.135,21.2,19.99,76.256,18.2,76.964" transform="translate(111.627 31.785)" fill="#a37b90"/>
    <path id="Tracé_315" data-name="Tracé 315" d="M373.69,176.325H351.81a2.9,2.9,0,0,1-2.847-2.48l-5.612-36.425a2.918,2.918,0,0,1,2.847-3.389h33.1a2.918,2.918,0,0,1,2.847,3.389l-5.611,36.425a2.9,2.9,0,0,1-2.847,2.48" transform="translate(111.671 43.597)" fill="#b1a5b7"/>
    <path id="Tracé_316" data-name="Tracé 316" d="M347.845,105.891l-3.765.978c-1-4.951-1.311-8.674-.187-9.132.749-.292,2.163,2.871,3.952,8.154" transform="translate(111.627 31.785)" fill="#fff"/>
    <path id="Tracé_317" data-name="Tracé 317" d="M305.282,194.348H428.408a7.99,7.99,0,0,0,7.99-7.99v-.4a7.99,7.99,0,0,0-7.99-7.991H305.282Z" transform="translate(99.3 57.889)" fill="#b1a5b7"/>
    <path id="Tracé_318" data-name="Tracé 318" d="M306.114,194.348h78.92a7.537,7.537,0,0,0,7.537-7.537v-1.305a7.537,7.537,0,0,0-7.537-7.537h-78.92a2.682,2.682,0,0,0-2.682,2.682v11.014a2.682,2.682,0,0,0,2.682,2.682" transform="translate(98.698 57.889)" fill="#c8bcce"/>
    <path id="Tracé_319" data-name="Tracé 319" d="M303.432,190.493h80.383a5.129,5.129,0,0,0,5.129-5.129v-.142a5.129,5.129,0,0,0-5.129-5.129H303.432Z" transform="translate(98.698 58.58)" fill="#fff"/>
    <path id="Tracé_320" data-name="Tracé 320" d="M401.072,181.88H325.986a7.968,7.968,0,0,1,0-15.935h75.086a2.5,2.5,0,0,1,2.494,2.494v10.947a2.5,2.5,0,0,1-2.494,2.494" transform="translate(103.443 53.978)" fill="#ece8ef"/>
    <path id="Tracé_321" data-name="Tracé 321" d="M414.888,181.88H339.8a7.968,7.968,0,1,1,0-15.935h75.086a2.5,2.5,0,0,1,2.494,2.494v10.947a2.5,2.5,0,0,1-2.494,2.494" transform="translate(107.937 53.978)" fill="#c8bcce"/>
    <path id="Tracé_322" data-name="Tracé 322" d="M416.527,178.13H339.521a5.059,5.059,0,0,1,0-10.117h77.006Z" transform="translate(108.792 54.65)" fill="#fff"/>
    <path id="Tracé_323" data-name="Tracé 323" d="M493.163,189.083h84.175a9.384,9.384,0,1,0,0-18.767H493.163a1.072,1.072,0,0,0-1.072,1.071v16.624a1.072,1.072,0,0,0,1.072,1.072" transform="translate(160.064 55.399)" fill="#b1a5b7"/>
    <path id="Tracé_324" data-name="Tracé 324" d="M491.54,189.083h65.138a9.384,9.384,0,1,0,0-18.767H491.54a2.671,2.671,0,0,0-2.672,2.672v13.424a2.672,2.672,0,0,0,2.672,2.672" transform="translate(159.016 55.399)" fill="#c8bcce"/>
    <path id="Tracé_325" data-name="Tracé 325" d="M488.868,184.668h68.094a5.958,5.958,0,1,0,0-11.916H488.868Z" transform="translate(159.016 56.192)" fill="#fff"/>
    <path id="Tracé_326" data-name="Tracé 326" d="M860.767,140.844a3.056,3.056,0,0,1-1.423-.362c-4.151-2.163-6.225-14.26-6.447-15.632a.863.863,0,0,1,1.373-.826c1.105.839,10.782,8.339,10.278,13.373a3.835,3.835,0,0,1-2.405,3.117,3.145,3.145,0,0,1-1.374.329m-5.737-13.988c.891,4.234,2.737,10.859,5.11,12.1a1.286,1.286,0,0,0,1.254.011c1.188-.574,1.389-1.266,1.435-1.736.288-2.851-4.536-7.6-7.8-10.37" transform="translate(277.421 40.285)" fill="#a37b90"/>
    <path id="Tracé_327" data-name="Tracé 327" d="M916.448,83a21.068,21.068,0,0,1-9.3-1.845.863.863,0,0,1,.8-1.527c.11.06,11.33,5.693,28.032-4.621a.862.862,0,1,1,.906,1.467C928.562,81.617,921.56,83,916.448,83" transform="translate(294.921 24.355)" fill="#a37b90"/>
    <path id="Tracé_328" data-name="Tracé 328" d="M893.6,165.7a.863.863,0,0,1-.241-1.691l66.017-19.222-.978-17.508a.861.861,0,0,1,.813-.909.873.873,0,0,1,.908.812l1.018,18.193a.861.861,0,0,1-.62.876l-66.674,19.414a.9.9,0,0,1-.241.034" transform="translate(290.383 41.103)" fill="#a37b90"/>
    <path id="Tracé_329" data-name="Tracé 329" d="M885.362,171.8a.862.862,0,0,1-.86-.818l-1.459-27.8c-.542-1.266-3.845-9.627-2.958-23.714.946-15.021,8.791-26.936,9.125-27.437a.863.863,0,1,1,1.435.958c-.08.118-7.921,12.044-8.838,26.588-.917,14.577,2.836,22.96,2.873,23.043a.879.879,0,0,1,.078.315l1.467,27.953a.863.863,0,0,1-.817.908h-.046" transform="translate(286.219 29.812)" fill="#a37b90"/>
    <path id="Tracé_330" data-name="Tracé 330" d="M961.371,150.129c-5.053,0-15.748-7.55-18.009-9.189a.862.862,0,0,1,.594-1.557c1.667.171,16.371,1.8,19.562,6.159a3.114,3.114,0,0,1,.608,2.55,2.387,2.387,0,0,1-1.512,1.834,3.441,3.441,0,0,1-1.243.2m-14.1-8.572c5.432,3.625,12.534,7.612,14.716,6.759a.675.675,0,0,0,.445-.575,1.419,1.419,0,0,0-.31-1.181c-1.839-2.51-9.572-4.192-14.851-5" transform="translate(306.734 45.336)" fill="#a37b90"/>
    <path id="Tracé_331" data-name="Tracé 331" d="M858.673,180.054a.863.863,0,0,1-.492-1.573l18.975-13.144a.863.863,0,1,1,.982,1.419L859.162,179.9a.857.857,0,0,1-.489.154" transform="translate(279.023 53.73)"/>
    <path id="Tracé_332" data-name="Tracé 332" d="M860.78,167.451a.863.863,0,0,1-.439-1.606l8.381-4.933a.862.862,0,1,1,.875,1.486l-8.381,4.933a.846.846,0,0,1-.436.121" transform="translate(279.708 52.301)"/>
    <path id="Tracé_333" data-name="Tracé 333" d="M776.87,200.656l108.009,0a3.135,3.135,0,0,0,2.733-4.673l-36.965-69.662a3.138,3.138,0,0,0-2.734-1.6H739.9a3.137,3.137,0,0,0-2.734,4.674l36.966,69.662a3.135,3.135,0,0,0,2.733,1.6" transform="translate(239.65 40.568)" fill="#92b4ea"/>
    <path id="Tracé_334" data-name="Tracé 334" d="M766.566,188.511H897.258a2.183,2.183,0,0,0,2.184-2.184v-5.721a2.183,2.183,0,0,0-2.184-2.184H766.566a2.184,2.184,0,0,0-2.184,2.184v5.721a2.184,2.184,0,0,0,2.184,2.184" transform="translate(248.633 58.036)" fill="#6876aa"/>
    <path id="Tracé_335" data-name="Tracé 335" d="M820.755,190.934H714.91a9.3,9.3,0,0,1-9.3-9.3v-.167a9.3,9.3,0,0,1,9.3-9.3H820.755a3.31,3.31,0,0,1,3.311,3.309v12.147a3.311,3.311,0,0,1-3.311,3.311" transform="translate(229.516 56.001)" fill="#f7b369"/>
    <path id="Tracé_336" data-name="Tracé 336" d="M828.338,191.083H735.223a8.756,8.756,0,0,1-8.755-8.756v-1.256a8.755,8.755,0,0,1,8.755-8.755h93.115a3.115,3.115,0,0,1,3.116,3.116v12.536a3.116,3.116,0,0,1-3.116,3.116" transform="translate(236.301 56.05)" fill="#ffc892"/>
    <path id="Tracé_337" data-name="Tracé 337" d="M830.406,186.668H735.65a5.958,5.958,0,1,1,0-11.916h94.756Z" transform="translate(237.349 56.842)" fill="#fff"/>
    <path id="Tracé_338" data-name="Tracé 338" d="M712.477,177.034H817.219a9.384,9.384,0,1,0,0-18.767H712.477a.245.245,0,0,0-.245.245v18.277a.245.245,0,0,0,.245.245" transform="translate(231.67 51.48)" fill="#c8bcce"/>
    <path id="Tracé_339" data-name="Tracé 339" d="M711.273,177.034h80.976a9.384,9.384,0,1,0,0-18.767H711.273a2.938,2.938,0,0,0-2.938,2.937V174.1a2.938,2.938,0,0,0,2.938,2.938" transform="translate(230.403 51.48)" fill="#ece8ef"/>
    <path id="Tracé_340" data-name="Tracé 340" d="M708.336,172.619h83.543a5.958,5.958,0,1,0,0-11.916H708.336Z" transform="translate(230.403 52.272)" fill="#fff"/>
    <path id="Tracé_341" data-name="Tracé 341" d="M719.152,162.985h84.175a9.384,9.384,0,1,0,0-18.767H719.152a1.072,1.072,0,0,0-1.072,1.071v16.626a1.071,1.071,0,0,0,1.072,1.071" transform="translate(233.572 46.91)" fill="#b1a5b7"/>
    <path id="Tracé_342" data-name="Tracé 342" d="M717.529,162.985h65.139a9.384,9.384,0,1,0,0-18.767H717.529a2.671,2.671,0,0,0-2.672,2.672v13.424a2.672,2.672,0,0,0,2.672,2.672" transform="translate(232.524 46.91)" fill="#c8bcce"/>
    <path id="Tracé_343" data-name="Tracé 343" d="M714.857,158.57h68.1a5.958,5.958,0,0,0,0-11.916h-68.1Z" transform="translate(232.524 47.703)" fill="#ece8ef"/>
    <path id="Tracé_344" data-name="Tracé 344" d="M775.565,132.289H738.952a.863.863,0,0,1,0-1.725h36.613a.863.863,0,1,1,0,1.725" transform="translate(240.081 42.469)" fill="#fff"/>
    <path id="Tracé_345" data-name="Tracé 345" d="M909.713,61.846a3.5,3.5,0,0,1-2.127-.7,6.3,6.3,0,0,1-2.034-3.827.862.862,0,0,1,.6-.938l11.57-3.557a.863.863,0,0,1,.977,1.3c-.472.722-4.708,7.082-8.283,7.664a4.333,4.333,0,0,1-.7.06M907.424,57.8a3.879,3.879,0,0,0,1.194,1.969,1.914,1.914,0,0,0,1.521.317c1.721-.28,4.038-2.8,5.639-4.854Z" transform="translate(294.55 17.171)"/>
    <path id="Tracé_346" data-name="Tracé 346" d="M906.124,55.026a.865.865,0,0,1-.82-.6c-2.261-6.96,3.448-12.366,3.693-12.593a.862.862,0,0,1,1.174,1.263c-.052.049-5.143,4.9-3.227,10.8a.862.862,0,0,1-.554,1.087.848.848,0,0,1-.266.042" transform="translate(294.299 13.534)"/>
    <path id="Tracé_347" data-name="Tracé 347" d="M904.695,45.385a.834.834,0,0,1-.171-.017.863.863,0,0,1-.677-1.014l1-4.979-1.922-2.712a.863.863,0,0,1,1.409-1l2.136,3.015a.873.873,0,0,1,.142.668l-1.067,5.344a.865.865,0,0,1-.845.693" transform="translate(293.644 11.483)"/>
    <path id="Tracé_348" data-name="Tracé 348" d="M916.207,46.406a.83.83,0,0,1-.171-.017.863.863,0,0,1-.677-1.014l1-4.979-1.922-2.712a.863.863,0,0,1,1.409-1l2.136,3.015a.867.867,0,0,1,.142.668l-1.067,5.344a.865.865,0,0,1-.846.693" transform="translate(297.389 11.815)"/>
    <path id="Tracé_349" data-name="Tracé 349" d="M903.034,34.433a.852.852,0,0,1-.531-.184.861.861,0,0,1-.148-1.21c1.931-2.465,5.175-1.667,6.621-.9a.862.862,0,0,1-.8,1.525c-.12-.061-2.937-1.5-4.457.439a.864.864,0,0,1-.68.33" transform="translate(293.452 10.206)"/>
    <path id="Tracé_350" data-name="Tracé 350" d="M922.236,35.413a.856.856,0,0,1-.429-.115c-3.983-2.3-6.742-1.217-6.856-1.172a.862.862,0,0,1-.673-1.588c.144-.062,3.617-1.494,8.39,1.266a.862.862,0,0,1-.432,1.609" transform="translate(297.221 10.445)"/>
    <path id="Tracé_351" data-name="Tracé 351" d="M931.493,57.5a.863.863,0,0,1-.622-1.46l8.211-8.531a.862.862,0,0,1,1.242,1.2l-8.21,8.529a.859.859,0,0,1-.622.265" transform="translate(302.709 15.369)"/>
    <path id="Tracé_352" data-name="Tracé 352" d="M939.8,54.227a.8.8,0,0,1-.194-.023l-5.872-1.348a.863.863,0,0,1,.386-1.682l5.872,1.349a.862.862,0,0,1-.192,1.7" transform="translate(303.502 16.639)"/>
    <path id="Tracé_353" data-name="Tracé 353" d="M479.289,153.07s26.49-4.294,36.417-5.34c10.927-1.149,16.987,4.91,20.7,9.012,6.316,6.975,6.442,20.9,5.56,23.29-1.342,3.634-8-3.8-8-3.8s.651,2.9-2.482,5.513a8.727,8.727,0,0,1-6.483,2.071s.522,5.562-2.327,5.9-14.923,3.151-16.114-.261,7.753-7.709,7.753-7.709l-1.854-5.9s-5,11.864-15.948,11.99-16.692-11.95-16.692-11.95Z" transform="translate(155.9 48.007)" fill="#f48462"/>
    <path id="Tracé_354" data-name="Tracé 354" d="M522.275,173.49a.909.909,0,0,1-.134-.011.864.864,0,0,1-.722-.985c1.036-6.7-5.773-12.238-5.842-12.292a.863.863,0,0,1,1.077-1.349c.313.25,7.659,6.208,6.471,13.9a.864.864,0,0,1-.851.732" transform="translate(167.599 51.61)"/>
    <path id="Tracé_355" data-name="Tracé 355" d="M514.612,179.157a.864.864,0,0,1-.8-1.181c2.127-5.393-2.364-12-2.409-12.069a.863.863,0,0,1,1.419-.981c.208.3,5.063,7.428,2.595,13.685a.864.864,0,0,1-.8.546" transform="translate(166.295 53.525)"/>
    <path id="Tracé_356" data-name="Tracé 356" d="M470.044,198.411V144.559a2.519,2.519,0,0,1,2.519-2.519h12.68a2.519,2.519,0,0,1,2.519,2.519v53.851a2.519,2.519,0,0,1-2.519,2.519h-12.68a2.519,2.519,0,0,1-2.519-2.519" transform="translate(152.893 46.202)" fill="#f7b369"/>
    <path id="Tracé_357" data-name="Tracé 357" d="M192.03,133.4s7.284-5.919,22.235-8.795a154.378,154.378,0,0,1,29.137-2.526l2.682,13.99Z" transform="translate(62.462 39.706)" fill="#eeedef"/>
    <path id="Tracé_358" data-name="Tracé 358" d="M207.077,134.1s-15.143-8.61-28.945-9.761a96.644,96.644,0,0,0-25.877,1.533l3.259,12.216Z" transform="translate(49.524 40.353)" fill="#eeedef"/>
    <path id="Tracé_359" data-name="Tracé 359" d="M274.358,209.042H163.515l-13.042-79.721h110.86Z" transform="translate(48.945 42.065)" fill="#c8bcce"/>
    <path id="Tracé_360" data-name="Tracé 360" d="M210.974,209.042H201.33l-12.456-79.721h9.265Z" transform="translate(61.436 42.065)" fill="#ddd5e2"/>
    <path id="Tracé_361" data-name="Tracé 361" d="M234.781,193.6a.863.863,0,0,1-.847-.706l-1.882-10.162a1.9,1.9,0,0,0-1.867-1.553H183.85a1.9,1.9,0,0,0-1.883,2.131l1.15,9.321a.863.863,0,0,1-1.712.213l-1.152-9.322a3.625,3.625,0,0,1,3.6-4.069h46.336a3.628,3.628,0,0,1,3.564,2.963l1.882,10.163a.861.861,0,0,1-.69,1,.808.808,0,0,1-.159.016" transform="translate(58.623 58.372)" fill="#b1a5b7"/>
    <path id="Tracé_362" data-name="Tracé 362" d="M271.369,190.551H160.526a.863.863,0,0,1,0-1.727H271.369a.863.863,0,0,1,0,1.727" transform="translate(51.934 61.419)" fill="#b1a5b7"/>
    <path id="Tracé_363" data-name="Tracé 363" d="M244.46,174.621a.861.861,0,0,1-.832-.641c-5.978-22.463,11.538-56.808,12.287-58.259a.863.863,0,1,1,1.533.791c-.182.35-17.96,35.207-12.154,57.025a.867.867,0,0,1-.834,1.084" transform="translate(78.842 37.489)" fill="#465884"/>
  </g>
</svg>
