<svg xmlns="http://www.w3.org/2000/svg" xmlns:xlink="http://www.w3.org/1999/xlink" width="1319.105" height="734.884" viewBox="0 0 1319.105 734.884">
  <defs>
    <linearGradient id="linear-gradient" x1="0.5" x2="0.5" y2="1" gradientUnits="objectBoundingBox">
      <stop offset="0" stop-color="#ffdde3"/>
      <stop offset="0.532" stop-color="#986ffc"/>
      <stop offset="1" stop-color="#d9f028"/>
    </linearGradient>
  </defs>
  <path id="Tracé_380" data-name="Tracé 380" d="M4971.291,744.883c-36.046,0-59.405-13.265-77.611-34.7-65.211-88.749,65.21-198.81,180.279-295.915,79.369-66.979,154.337-130.243,148.612-171.166-1.822-13.022-12.3-23.668-32.019-32.545-130.477-46.656-305.05,48.292-473.876,140.114-101.067,54.969-205.576,111.809-297.607,135.44q-25.575,5.106-45.824,5.1c-32.133,0-54.1-9.632-65.7-28.791-25.979-42.915,3.427-132.018,87.4-264.835,61.554-97.359,131.226-183.936,131.922-184.8a7.5,7.5,0,0,1,11.673,9.42c-76.274,94.523-264.154,356.475-218.163,432.448,12.851,21.228,44.935,26.892,95.359,16.835,89.831-23.077,188.893-76.956,293.772-134,171.726-93.4,349.3-189.977,486.648-140.838,25.012,11.232,38.711,26.085,41.27,44.368,6.873,49.124-67.582,111.956-153.793,184.708C4973.587,518.6,4848.858,623.856,4905.441,700.89c46.294,54.472,134.965,72.192,700.368-308.772a7.5,7.5,0,0,1,8.382,12.44C5236.124,659.3,5062.828,744.877,4971.291,744.883Z" transform="translate(-4298.396 -10)" fill="url(#linear-gradient)"/>
</svg>
