<svg xmlns="http://www.w3.org/2000/svg" width="10.895" height="12.452" viewBox="0 0 10.895 12.452">
  <path id="Icon_awesome-trash-alt" data-name="Icon awesome-trash-alt" d="M.778,11.284a1.167,1.167,0,0,0,1.167,1.167h7a1.167,1.167,0,0,0,1.167-1.167V3.113H.778ZM7.393,5.058a.389.389,0,1,1,.778,0v5.448a.389.389,0,0,1-.778,0Zm-2.335,0a.389.389,0,1,1,.778,0v5.448a.389.389,0,0,1-.778,0Zm-2.335,0a.389.389,0,1,1,.778,0v5.448a.389.389,0,0,1-.778,0ZM10.506.778H7.588L7.359.323A.584.584,0,0,0,6.836,0H4.057a.577.577,0,0,0-.52.323L3.307.778H.389A.389.389,0,0,0,0,1.167v.778a.389.389,0,0,0,.389.389H10.506a.389.389,0,0,0,.389-.389V1.167A.389.389,0,0,0,10.506.778Z" transform="translate(0 0)" fill="#f55a78"/>
</svg>
