<svg xmlns="http://www.w3.org/2000/svg" width="14.199" height="12.168" viewBox="0 0 14.199 12.168">
  <path id="Icon_ionic-md-eye-off" data-name="Icon ionic-md-eye-off" d="M9.351,7.06a3.219,3.219,0,0,1,3.229,3.2,3.082,3.082,0,0,1-.231,1.172l1.885,1.87a7.575,7.575,0,0,0,2.215-3.042A7.647,7.647,0,0,0,6.775,5.907L8.169,7.292A3.193,3.193,0,0,1,9.351,7.06ZM2.9,5.314,4.37,6.775l.3.295A7.539,7.539,0,0,0,2.25,10.264a7.658,7.658,0,0,0,9.927,4.265l.273.269,1.892,1.87.821-.814L3.714,4.5ZM6.464,8.854l1,.992a1.815,1.815,0,0,0-.051.415,1.926,1.926,0,0,0,1.936,1.92,1.821,1.821,0,0,0,.418-.051l1,.992a3.212,3.212,0,0,1-4.648-2.864A3.165,3.165,0,0,1,6.464,8.854Zm2.782-.5,2.034,2.018.013-.1a1.926,1.926,0,0,0-1.936-1.92Z" transform="translate(-2.25 -4.5)" fill="#fff"/>
</svg>
