<svg xmlns="http://www.w3.org/2000/svg" width="14.597" height="9.731" viewBox="0 0 14.597 9.731">
  <path id="Icon_awesome-eye" data-name="Icon awesome-eye" d="M14.509,9A8.128,8.128,0,0,0,7.3,4.5,8.129,8.129,0,0,0,.088,9a.82.82,0,0,0,0,.74,8.128,8.128,0,0,0,7.21,4.5,8.129,8.129,0,0,0,7.21-4.5A.82.82,0,0,0,14.509,9ZM7.3,13.015a3.649,3.649,0,1,1,3.649-3.649A3.649,3.649,0,0,1,7.3,13.015Zm0-6.082a2.415,2.415,0,0,0-.641.1,1.213,1.213,0,0,1-1.7,1.7A2.427,2.427,0,1,0,7.3,6.933Z" transform="translate(0 -4.5)" fill="#f8f8f8"/>
</svg>
