<?xml version="1.0" encoding="utf-8"?>
<!-- Generator: Adobe Illustrator 27.5.0, SVG Export Plug-In . SVG Version: 6.00 Build 0)  -->
<svg version="1.1" id="Calque_1" xmlns="http://www.w3.org/2000/svg" xmlns:xlink="http://www.w3.org/1999/xlink" x="0px" y="0px"
	 viewBox="0 0 183.6 220" style="enable-background:new 0 0 183.6 220;" xml:space="preserve">
<style type="text/css">
	.st0{fill:#F9D555;}
	.st1{fill-rule:evenodd;clip-rule:evenodd;fill:#FBB369;}
	.st2{fill-rule:evenodd;clip-rule:evenodd;fill:#074785;}
	.st3{fill:#074785;}
	.st4{fill:#FFFFFF;}
</style>
<g>
	<path class="st0" d="M51.3,45.8c0.7,0.6,2,9.6,3.2,9.5c1.2-0.1,2.3-9,2.8-9.6c1.1-1.2,9.4-2,9.3-3.1c-0.1-1.1-8.2-1.7-9.3-2.8
		c-0.6-0.6-2-9.6-3.2-9.5c-1.2,0.1-2.2,8.9-2.8,9.5c-1.1,1.1-9.4,2-9.4,3.2C42,44.1,50.2,44.7,51.3,45.8z"/>
	<path class="st0" d="M116.9,198.7c0.7,0.6,2,9.6,3.2,9.5c1.2-0.1,2.3-9,2.8-9.6c1.1-1.2,9.4-2,9.3-3.1c-0.1-1.1-8.2-1.7-9.3-2.8
		c-0.6-0.6-2-9.6-3.2-9.5c-1.2,0.1-2.2,8.9-2.8,9.6c-1.1,1.1-9.4,2-9.4,3.2C107.6,197,115.8,197.6,116.9,198.7z"/>
	<path class="st0" d="M146,60.3c0.7,0.6,2,9.6,3.2,9.5c1.2-0.1,2.3-9,2.8-9.6c1.1-1.2,9.4-2,9.3-3.1c-0.1-1.1-8.2-1.7-9.3-2.8
		c-0.6-0.6-2-9.6-3.2-9.5c-1.2,0.1-2.2,8.9-2.8,9.5c-1.1,1.1-9.4,2-9.4,3.2C136.7,58.6,144.9,59.2,146,60.3z"/>
	<g>
		<path class="st1" d="M15,116.2c1.5,2,3,3.9,3.5,6.4c0.6,2.9-0.7,5.9-0.4,8.8c0.2,3.1,1.3,6.2,3.1,8.7c1.5,2.1,4.1,3.9,4.5,6.6
			c0.4,2.5-1.1,5.2-0.9,7.8c0.2,2.5,1.1,5.1,2.3,7.4c2.3,4.4,5.8,8.3,9.8,11.2c14.1,10.1,35,9.8,51.2,6.4c9.7-2,19.3-4.1,29-6
			c6.6-1.3,13.5-2.1,20.2-1.4c6.1,0.6,13.6,3.3,18.6-1.8c8.9-9.1,10.8-23.5,11.2-35.6c0.5-12.8,0.8-28-7.2-38.6
			c-4.1-5.5-10.9-7.6-16.7-10.8c-8.1-4.5-14.5-11.4-20.2-18.6c-5.4-6.9-12.1-14.7-14-23.4c-1.4-6.3-3.2-12.5-3.4-18.9
			c-0.1-3.9,0.4-10.9-4-12.7c-14-5.8-17.3,26.1-17.3,32.2c0,8.5,1.1,17,1.9,25.4c-0.2-2.2-38.4-4.4-42.2-4.3
			C32,65.2,10,69.9,14.5,86.6c0.6,2.2,1.7,4.3,2.6,6.4c0.5,1.3-2.3,4.2-2.9,5.2c-0.9,1.7-1.5,3.6-1.9,5.5c0,0.2-0.1,0.3-0.1,0.5
			C11.5,108.5,12.5,112.8,15,116.2z"/>
	</g>
	<g>
		<path class="st2" d="M106.5,30.9c-0.4-2.1-0.6-4.3-0.7-6.5c-0.1-3.9,0.4-10.9-4-12.7c-1.5-0.6-2.9-0.8-4.2-0.6
			c-0.5,1.5-0.7,3-0.7,4.5c0,2.9-0.2,7.9,1.2,10.4C99.6,29.2,103.2,30.2,106.5,30.9z"/>
	</g>
	<g>
		<path class="st3" d="M43,78.8c5.6,0,11.1,0.8,16.5,2.3c9.1,2.5,20.6,15.1,5.6,19.1C51.2,104,31.6,97.4,19,92.5
			c-2.6-1-3.7,3.1-1.1,4.1c9.7,3.8,49.5,17.8,57.2,2.3C84.4,80.3,55.4,74.5,43,74.5C40.2,74.6,40.2,78.8,43,78.8L43,78.8z"/>
	</g>
	<g>
		<path class="st3" d="M67.3,104.8c7,0.1,10.4,4.1,9.9,12.3c-2.3,3.6-5.4,6-9.3,7.3c-5,2-10.8,2-16.2,2c-10.6-0.1-21.3-2.5-31.5-5.1
			c-2.7-0.7-3.8,3.4-1.1,4.1c16.9,4.3,38.9,9.6,55.1,0.7c15-8.2,7.2-23.9-6.9-25.5C64.6,100.3,64.6,104.5,67.3,104.8L67.3,104.8z"/>
	</g>
	<g>
		<path class="st3" d="M60.8,130.6c4.5,1.5,8.8,3,12.5,6c5,5.5,4.3,10.5-2.1,14.9c-4,1.7-11,0.6-15,0c-9.6-1.3-19.7-3-28.9-6
			c-2.6-0.8-3.7,3.3-1.1,4.1c10.3,3.3,21.5,5,32.2,6.5c6.8,0.9,13.9,0.8,19.3-3.7c3.7-3,4.1-10.8,1.8-14.6
			c-4-6.5-10.6-9.1-17.6-11.3C59.3,125.6,58.2,129.8,60.8,130.6L60.8,130.6z"/>
	</g>
	<g>
		<path class="st3" d="M69.1,156c6.9,4.6,6.1,12.5-2,15.2c-3.9,1.3-8.3,1.2-12.3,0.9c-7.4-0.4-14.9-2.9-21.8-5.4
			c-2.6-0.9-3.7,3.2-1.1,4.1c11.2,4,27.2,9.1,38.8,3.6c10.2-4.9,9.4-16.3,0.6-22.2C69,150.8,66.8,154.5,69.1,156L69.1,156z"/>
	</g>
	<g>
		<path class="st3" d="M130.5,160.4c3.7-10.5,6.2-21.1,1.2-31.5c-1.2-2.5-4.9-0.3-3.7,2.2c4.5,9.3,1.7,19.1-1.6,28.2
			C125.4,161.8,129.5,162.9,130.5,160.4L130.5,160.4z"/>
	</g>
	<path class="st2" d="M105.2,144.8c4.7,0.6,8,4.9,7.5,9.6c-0.6,4.7-4.9,8-9.6,7.5c-4.7-0.6-8-4.9-7.5-9.6
		C96.2,147.6,100.5,144.3,105.2,144.8z"/>
	<path class="st2" d="M98.2,87c4.7,0.6,8,4.9,7.5,9.6c-0.6,4.7-4.9,8-9.6,7.5c-4.7-0.6-8-4.9-7.5-9.6C89.3,89.8,93.5,86.4,98.2,87z"
		/>
	<path class="st2" d="M103.3,115.9c7.1,1.6,7.4,12.1,2.4,16.1c-2.4,1.9,0.6,5.7,2.9,3.8c8.4-6.9,6.4-22-4.8-24.6
		C100.9,110.5,100.3,115.2,103.3,115.9z"/>
	<path class="st4" d="M87.9,177.2c4.3-1,8.5-2.1,12.7-3.5c2.7-0.8,1.5-5-1.2-4.2c-4.2,1.3-8.4,2.5-12.7,3.5
		C84.1,173.6,85.2,177.8,87.9,177.2z"/>
	<path class="st4" d="M79.6,178.8c2.8,0,2.8-4.3,0-4.3C76.8,174.4,76.8,178.8,79.6,178.8z"/>
	<path class="st4" d="M106.8,172.4c2.8,0,2.8-4.3,0-4.3C104,168.1,104,172.4,106.8,172.4z"/>
	<path class="st4" d="M88.4,62.4c0.7,2.7,4.9,1.6,4.2-1.2c-1.8-7.1-1.5-14.4-1.5-21.6c0-2.8-4.3-2.8-4.3,0
		C86.7,47.3,86.4,54.9,88.4,62.4z"/>
	<path class="st4" d="M90.6,34.7c2.8,0,2.8-4.3,0-4.3C87.8,30.3,87.8,34.7,90.6,34.7z"/>
	<path class="st4" d="M93.2,70.4c2.8,0,2.8-4.3,0-4.3C90.4,66,90.4,70.4,93.2,70.4z"/>
	<path class="st4" d="M139.9,92.2c5.9,2.5,11.1,5.9,15.6,10.5c2,2,5-1.1,3.1-3.1c-4.7-4.9-10.2-8.5-16.5-11.1
		c-1.1-0.5-2.3-0.3-3,0.8C138.6,90.2,138.8,91.8,139.9,92.2z"/>
	<path class="st4" d="M134,88.9c2.8,0,2.8-4.3,0-4.3C131.2,84.5,131.2,88.9,134,88.9z"/>
	<path class="st4" d="M23.7,136.5c0.8,2.3,2.2,4.5,4.5,5.6c1,0.6,2.4,0.3,3-0.8c0.6-1,0.3-2.4-0.8-3c-1.2-0.7-2-1.8-2.5-3
		c-0.4-1.1-1.5-1.8-2.7-1.5C24.2,134.1,23.3,135.4,23.7,136.5z"/>
</g>
</svg>
