<?xml version="1.0" encoding="utf-8"?>
<!-- Generator: Adobe Illustrator 27.5.0, SVG Export Plug-In . SVG Version: 6.00 Build 0)  -->
<svg version="1.1" id="Calque_1" xmlns="http://www.w3.org/2000/svg" xmlns:xlink="http://www.w3.org/1999/xlink" x="0px" y="0px"
	 viewBox="0 0 183.6 220" style="enable-background:new 0 0 183.6 220;" xml:space="preserve">
<style type="text/css">
	.st0{fill:#F9D555;}
	.st1{fill:#F9EE69;}
	.st2{fill:#074785;}
	.st3{fill:#074780;}
	.st4{fill-rule:evenodd;clip-rule:evenodd;fill:#074785;}
	.st5{fill:#FFFFFF;}
</style>
<g>
	<path class="st0" d="M30.3,95.5c-0.5-0.8,0.3-10.1-0.9-10.3c-1.2-0.2-4.4,8.4-5.1,8.9c-1.4,0.9-9.9-0.2-10.1,0.9
		c-0.2,1.2,7.8,3.6,8.6,5c0.5,0.8-0.3,10.1,0.9,10.3c1.2,0.2,4.3-8.4,5.1-8.9c1.4-0.9,9.9,0.2,10.1-0.9
		C39.2,99.4,31.2,96.8,30.3,95.5z"/>
	<path class="st0" d="M146.2,197.8c-0.5-0.8,0.3-10.1-0.9-10.3c-1.2-0.2-4.4,8.4-5.1,8.9c-1.4,0.9-9.9-0.2-10.1,0.9
		c-0.2,1.1,7.8,3.6,8.6,5c0.5,0.8-0.3,10.1,0.9,10.3c1.2,0.2,4.3-8.4,5.1-8.9c1.4-0.9,9.9,0.2,10.1-0.9
		C155,201.7,147,199.1,146.2,197.8z"/>
	<path class="st0" d="M156.1,59.6c-0.5-0.8,0.3-10.1-0.9-10.3c-1.2-0.2-4.4,8.4-5.1,8.9c-1.4,0.9-9.9-0.2-10.1,0.9
		c-0.2,1.2,7.8,3.6,8.6,5c0.5,0.8-0.3,10.1,0.9,10.3c1.2,0.2,4.3-8.4,5.1-8.9c1.4-0.9,9.9,0.2,10.1-0.9
		C165,63.4,157,60.9,156.1,59.6z"/>
	<g>
		<path class="st1" d="M156.1,121.8c-0.2-11-8.6-12.8-15.6-11.4c6.9-9.9,10-14.3,8-19.4c-5.3-13.5-19.1-6.5-26.7-0.9
			c0,0-7.6,6.3-7.4,2.5c0.5-7.5,3.4-24.1,4.5-28.8c2.2-9.4,4.5-19.1,6-28.7c1-6.7,5.8-19.9-1.2-24.6c-14.2-9.7-19.7,17-21.5,24.9
			c-1.5,6.5-3.3,13.1-4.9,19.6c-2.1,8.8-11.1,38.6-14.1,40.4c-6.2,3.8,7.5-83.6-13.3-85.2C55.4,9,55.9,60.2,55.2,70.4
			c-1.5,20.6-3.2,39-11.1,58.3c-3,7.5-7.1,14.5-9,22.4c-3.1,13.2-1.1,31.4,5.2,43.9c5,9.8,19,14,28.8,16.4
			c15.1,3.6,37.1,1.9,44.8-14c6-10.9,11.5-16,19.2-25.7c7.8-9.8,13.7-21.5,18.8-32.8C154.4,134,156.7,126.9,156.1,121.8z"/>
	</g>
	<g>
		<path class="st2" d="M44,139.6c13.7-8.4,31.3-15,47.3-16.9c3.2-0.4,11.9-1.4,8.1,6.3c-2.7,5.4-9.2,9-14.1,12.1
			c-7.7,5-14.9,10.2-23.2,14.3c-2.2,1.1-0.2,4.3,2,3.2c6.5-3.1,52.4-27.7,38.1-38.3c-5.1-3.7-14.3-1.2-19.8,0.1
			C68.7,123.5,54,129,42,136.3C39.9,137.6,41.9,140.8,44,139.6L44,139.6z"/>
	</g>
	<g>
		<path class="st3" d="M116.6,94.6c-7.8,6.3-14.3,13.7-19.4,22.3c-1.3,2.1,2.1,3.9,3.3,1.8c5-8.3,11.3-15.4,18.9-21.5
			C121.2,95.7,118.4,93.1,116.6,94.6L116.6,94.6z"/>
	</g>
	<g>
		<path class="st2" d="M102.2,134c2,0,4.1-0.6,6-1.2c2.3-0.7,4.7-1.4,6.8-2.6c2.1-1.2,0.1-4.5-2-3.2c-1.7,1-3.6,1.5-5.4,2.1
			c-1.8,0.5-3.7,1.2-5.6,1.2C99.7,130.2,99.8,134,102.2,134L102.2,134z"/>
	</g>
	<g>
		<path class="st2" d="M143.2,107.7c-8.3,3.2-16.4,7.1-23.3,12.9c-4.2,3.5-10,8.4-11.3,14c-3.8,16,23.9,6.1,29.7,2.9
			c2.2-1.2,0.2-4.4-2-3.2c-4.3,2.3-8.7,4-13.5,5.1c-2.1,0.5-12.9,2.1-10.2-4.8c0.9-2.3,2.7-4.3,4.3-6.1c7.1-8.2,17.4-13.3,27.4-17.2
			C146.5,110.5,145.5,106.8,143.2,107.7L143.2,107.7z"/>
	</g>
	<path class="st4" d="M58.7,162.9c-4.9-1-9.4,2.1-10.4,6.9c-0.5,2.2,2.9,2.9,3.3,0.7c0.7-3.1,3.2-4.8,6.4-4.3c3.1,0.5,4.6,3.1,3.8,6
		c-0.6,2.1,2.8,2.9,3.3,0.7C66.4,168.2,63.5,163.9,58.7,162.9z"/>
	<path class="st4" d="M106.8,170.3c-4.9-1-9.4,2.1-10.4,6.9c-0.5,2.2,2.9,2.9,3.3,0.7c0.7-3.1,3.2-4.8,6.4-4.3
		c3.1,0.5,4.6,3.1,3.8,6c-0.6,2.1,2.8,2.9,3.3,0.7C114.5,175.6,111.6,171.3,106.8,170.3z"/>
	<path class="st4" d="M86.4,176.7c-0.8,3.4-3.2,5.5-6.8,4.9c-3.4-0.6-6-3.1-5.2-6.7c0.4-2.2-2.9-2.9-3.3-0.7
		c-1.1,5.6,2.6,9.6,7.8,10.8c5.3,1.2,9.7-2.4,10.9-7.5C90.2,175.3,86.8,174.6,86.4,176.7z"/>
	<path class="st5" d="M153.4,125.2c0.2-3.5-1.5-6.8-4.2-8.9c-2.2-1.8-5.3,1.4-3.1,3.2c2.1,1.7,3,3.6,2.8,6.2
		c-0.1,2.6-1.2,5.1-2.1,7.5c-0.4,1.1,0.6,2.4,1.6,2.7c1.3,0.3,2.3-0.5,2.7-1.6C152.3,131.3,153.3,128.4,153.4,125.2z"/>
	<path class="st5" d="M145.4,138.8c-2.8-0.7-3.8,3.7-1,4.3C147.2,143.8,148.2,139.5,145.4,138.8z"/>
	<path class="st5" d="M64.3,68.7c-0.1-10.8-0.1-21.8,2-32.4c0.2-1.2-0.2-2.4-1.4-2.8c-1.1-0.3-2.6,0.3-2.8,1.4
		c-2.1,11-2.3,22.3-2.2,33.5C59.9,71.4,64.3,71.6,64.3,68.7z"/>
	<path class="st5" d="M65.9,25.2c-2.8-0.7-3.8,3.7-1,4.3C67.7,30.2,68.7,25.9,65.9,25.2z"/>
	<path class="st5" d="M61.8,75.1c-2.8-0.7-3.8,3.7-1,4.3C63.5,80.1,64.5,75.8,61.8,75.1z"/>
	<path class="st5" d="M105.6,38l-6.2,26c-0.7,2.8,3.7,3.8,4.3,1l6.2-26C110.6,36.3,106.2,35.3,105.6,38z"/>
	<path class="st5" d="M99.9,71.7c-2.8-0.7-3.8,3.7-1,4.3C101.6,76.7,102.6,72.3,99.9,71.7z"/>
	<path class="st5" d="M110.5,27.1c-2.8-0.7-3.8,3.7-1,4.3C112.2,32.1,113.2,27.8,110.5,27.1z"/>
	<path class="st5" d="M45.1,181.9c-1-4.5-1.8-9-2.3-13.5c-0.5-4.4-0.7-9.2,0.8-13.4c0.4-1.1-0.6-2.4-1.6-2.7
		c-1.3-0.3-2.3,0.5-2.7,1.6c-1.6,4.6-1.3,9.8-0.9,14.6c0.5,4.9,1.4,9.8,2.5,14.7C41.4,186,45.7,184.7,45.1,181.9z"/>
	<path class="st5" d="M45.2,188.5c-2.8-0.7-3.8,3.7-1,4.3C47,193.5,48,189.1,45.2,188.5z"/>
	<path class="st5" d="M106.3,192.8c-1.1,2-2.4,3.9-3.5,5.9c-1.4,2.5,2.5,4.6,3.9,2.1c1.1-2,2.4-3.9,3.5-5.9
		C111.6,192.4,107.7,190.3,106.3,192.8z"/>
</g>
</svg>
