<svg xmlns="http://www.w3.org/2000/svg" width="22.481" height="22.481" viewBox="0 0 22.481 22.481">
  <path id="Icon_awesome-save" data-name="Icon awesome-save" d="M21.776,7.165,17.566,2.955a2.409,2.409,0,0,0-1.7-.705H2.409A2.409,2.409,0,0,0,0,4.659V22.322a2.409,2.409,0,0,0,2.409,2.409H20.072a2.409,2.409,0,0,0,2.409-2.409V8.868a2.409,2.409,0,0,0-.705-1.7ZM11.241,21.519a3.212,3.212,0,1,1,3.212-3.212A3.212,3.212,0,0,1,11.241,21.519ZM16.058,6.238v5.044a.6.6,0,0,1-.6.6H3.814a.6.6,0,0,1-.6-.6V6.064a.6.6,0,0,1,.6-.6H15.281a.6.6,0,0,1,.426.176l.175.175a.6.6,0,0,1,.176.426Z" transform="translate(0 -2.25)" fill="#fff"/>
</svg>
