<svg xmlns="http://www.w3.org/2000/svg" width="19.862" height="20.589" viewBox="0 0 19.862 20.589">
  <path id="Icon_metro-cog" data-name="Icon metro-cog" d="M21.526,14.2A3.928,3.928,0,0,1,22.977,8.84l-2.023-3.5a3.877,3.877,0,0,1-1.967.533,3.928,3.928,0,0,1-3.915-3.941H11.025A3.876,3.876,0,0,1,10.5,3.9,3.928,3.928,0,0,1,5.138,5.326L3.115,8.83A3.878,3.878,0,0,1,4.56,10.268,3.928,3.928,0,0,1,3.118,15.62l2.023,3.5A3.877,3.877,0,0,1,7.1,18.6a3.928,3.928,0,0,1,3.915,3.92h4.046a3.878,3.878,0,0,1,.522-1.955,3.928,3.928,0,0,1,5.357-1.428l2.023-3.5A3.878,3.878,0,0,1,21.526,14.2Zm-8.48,2.193a4.169,4.169,0,1,1,4.169-4.169A4.169,4.169,0,0,1,13.046,16.391Z" transform="translate(-3.115 -1.928)" fill="#707070"/>
</svg>
