<svg xmlns="http://www.w3.org/2000/svg" width="20.966" height="18.633" viewBox="0 0 20.966 18.633">
  <path id="Icon_awesome-edit" data-name="Icon awesome-edit" d="M14.655,3.032l3.283,3.283a.356.356,0,0,1,0,.5l-7.95,7.95-3.378.375a.708.708,0,0,1-.783-.783L6.2,10.982l7.95-7.95A.356.356,0,0,1,14.655,3.032Zm5.9-.834L18.775.422a1.424,1.424,0,0,0-2.009,0L15.477,1.711a.356.356,0,0,0,0,.5L18.76,5.5a.356.356,0,0,0,.5,0l1.289-1.289a1.424,1.424,0,0,0,0-2.009ZM13.978,12.605v3.706H2.33V4.663h8.365A.448.448,0,0,0,11,4.535L12.46,3.079a.437.437,0,0,0-.309-.746H1.747A1.748,1.748,0,0,0,0,4.08V16.893A1.748,1.748,0,0,0,1.747,18.64H14.56a1.748,1.748,0,0,0,1.747-1.747V11.149a.438.438,0,0,0-.746-.309L14.1,12.3A.448.448,0,0,0,13.978,12.605Z" transform="translate(0 -0.007)" fill="#707070"/>
</svg>
