<svg xmlns="http://www.w3.org/2000/svg" width="20.102" height="15.319" viewBox="0 0 20.102 15.319">
  <path id="Icon_awesome-sign-out-alt" data-name="Icon awesome-sign-out-alt" d="M19.823,12.836l-6.7,6.7a.959.959,0,0,1-1.635-.678V15.029H6.063a.955.955,0,0,1-.957-.957V10.243a.955.955,0,0,1,.957-.957h5.424V5.457a.959.959,0,0,1,1.635-.678l6.7,6.7A.965.965,0,0,1,19.823,12.836Zm-12.165,6.5v-1.6a.48.48,0,0,0-.479-.479H3.829a1.275,1.275,0,0,1-1.276-1.276V8.328A1.275,1.275,0,0,1,3.829,7.052h3.35a.48.48,0,0,0,.479-.479v-1.6A.48.48,0,0,0,7.179,4.5H3.829A3.83,3.83,0,0,0,0,8.328v7.658a3.83,3.83,0,0,0,3.829,3.829h3.35A.48.48,0,0,0,7.658,19.337Z" transform="translate(0 -4.499)" fill="#707070"/>
</svg>
