<svg xmlns="http://www.w3.org/2000/svg" width="20.216" height="13.477" viewBox="0 0 20.216 13.477">
  <path id="Icon_awesome-eye" data-name="Icon awesome-eye" d="M20.094,10.726A11.257,11.257,0,0,0,10.108,4.5,11.259,11.259,0,0,0,.122,10.727a1.135,1.135,0,0,0,0,1.024,11.257,11.257,0,0,0,9.986,6.226,11.259,11.259,0,0,0,9.986-6.227A1.135,1.135,0,0,0,20.094,10.726Zm-9.986,5.566a5.054,5.054,0,1,1,5.054-5.054A5.054,5.054,0,0,1,10.108,16.293Zm0-8.423A3.345,3.345,0,0,0,9.22,8,1.679,1.679,0,0,1,6.872,10.35a3.362,3.362,0,1,0,3.236-2.481Z" transform="translate(0 -4.5)" fill="#707070"/>
</svg>
