<svg xmlns="http://www.w3.org/2000/svg" width="127.925" height="19.875" viewBox="0 0 127.925 19.875">
  <g id="Groupe_1" data-name="Groupe 1" transform="translate(-54.075 -46.325)">
    <path id="Tracé_416" data-name="Tracé 416" d="M2.075,0h7.95c5.725,0,9.65-3.45,9.65-8.75s-3.925-8.75-9.65-8.75H2.075Zm4.05-3.325v-10.85h3.7c3.475,0,5.75,2.075,5.75,5.425S13.3-3.325,9.825-3.325Zm18.275-12a2.243,2.243,0,0,0,2.425-2.25,2.189,2.189,0,0,0-2.425-2.1A2.229,2.229,0,0,0,21.975-17.5,2.229,2.229,0,0,0,24.4-15.325ZM22.45,0h3.9V-13.45h-3.9ZM34.5.2c4.025,0,6.35-1.775,6.35-4.275,0-5.3-8.125-3.075-8.125-5.375,0-.7.75-1.25,2.5-1.25a7.724,7.724,0,0,1,3.875,1l1.3-2.775a11.06,11.06,0,0,0-5.175-1.175C31.3-13.65,29-11.85,29-9.3c0,5.375,8.125,3.125,8.125,5.325,0,.75-.675,1.225-2.475,1.225a9.2,9.2,0,0,1-4.675-1.3l-1.3,2.8A11.546,11.546,0,0,0,34.5.2Zm21-.2h4.725L52.55-9.7l7.25-7.8H55.3L47.55-9.325V-17.5H43.525V0H47.55V-4.425l2.35-2.45ZM67.6.2c4.275,0,7.375-2.875,7.375-6.925s-3.1-6.925-7.375-6.925-7.4,2.875-7.4,6.925S63.325.2,67.6.2Zm0-3.2a3.413,3.413,0,0,1-3.45-3.725A3.413,3.413,0,0,1,67.6-10.45a3.394,3.394,0,0,1,3.425,3.725A3.394,3.394,0,0,1,67.6-3Zm13.7-8.675V-13.45H77.575V0h3.9V-6.35c0-2.575,1.425-3.75,3.575-3.75.3,0,.55.025.875.05v-3.6A5.428,5.428,0,0,0,81.3-11.675ZM92.825.2c4.025,0,6.35-1.775,6.35-4.275,0-5.3-8.125-3.075-8.125-5.375,0-.7.75-1.25,2.5-1.25a7.724,7.724,0,0,1,3.875,1l1.3-2.775A11.06,11.06,0,0,0,93.55-13.65c-3.925,0-6.225,1.8-6.225,4.35,0,5.375,8.125,3.125,8.125,5.325,0,.75-.675,1.225-2.475,1.225A9.2,9.2,0,0,1,88.3-4.05L87-1.25A11.546,11.546,0,0,0,92.825.2Zm15.15,0c4.275,0,7.375-2.875,7.375-6.925s-3.1-6.925-7.375-6.925-7.4,2.875-7.4,6.925S103.7.2,107.975.2Zm0-3.2a3.413,3.413,0,0,1-3.45-3.725,3.413,3.413,0,0,1,3.45-3.725A3.394,3.394,0,0,1,111.4-6.725,3.394,3.394,0,0,1,107.975-3Z" transform="translate(52 66)" fill="#fff"/>
    <circle id="Ellipse_1" data-name="Ellipse 1" cx="3.5" cy="3.5" r="3.5" transform="translate(175 59)" fill="#d9f028"/>
  </g>
</svg>
