<?xml version="1.0" encoding="utf-8"?>
<!-- Generator: Adobe Illustrator 27.5.0, SVG Export Plug-In . SVG Version: 6.00 Build 0)  -->
<svg version="1.1" id="Calque_1" xmlns="http://www.w3.org/2000/svg" xmlns:xlink="http://www.w3.org/1999/xlink" x="0px" y="0px"
	 viewBox="0 0 122.3 20" style="enable-background:new 0 0 122.3 20;" xml:space="preserve">
<style type="text/css">
	.st0{fill:#FFFFFF;}
	.st1{fill:#D2F200;}
</style>
<g>
	<g>
		<path class="st0" d="M0.5,0.4h7c6.1,0,9.9,3.9,9.9,9.6s-3.7,9.6-9.9,9.6h-7V0.4z M7.4,16.5c4.1,0,6.4-2.6,6.4-6.5
			c0-3.9-2.3-6.5-6.4-6.5H3.7v13H7.4z"/>
		<path class="st0" d="M20.1,19.6V5.1h3.2v14.5H20.1z"/>
		<path class="st0" d="M26,18.4l1.5-2.7c1.4,1,2.9,1.1,4.2,1.1c1.7,0,2.7-0.6,2.7-1.4c0-1-1.6-1.4-2.9-1.7c-2.7-0.6-5.1-1.6-5.1-4.7
			c0-2.6,1.9-4.3,5.4-4.3C33.3,4.8,35.2,5,37,6l-1.2,2.6c-1.3-0.5-3-0.8-4.1-0.8c-1.4,0-2.1,0.5-2.1,1.2c0,0.9,1.2,1.3,2.6,1.6
			c3,0.7,5.4,1.7,5.4,4.8c0,2.7-2.2,4.6-5.9,4.6C29.9,20,27.7,19.7,26,18.4z"/>
		<path class="st0" d="M54.1,19.8c-2.8-0.2-4.5-1.3-6.5-4.2L46,13.2l-2.2,2.4v4h-3.2V0l3.2,0v11.7l6.8-8.3h3.5l-5.9,7.7l2,3
			c1.1,1.5,2.3,2.5,3.9,2.8V19.8z"/>
		<path class="st0" d="M55.2,12.4c0-4.5,2.5-7.6,7.7-7.6c5.2,0,7.7,3.1,7.7,7.6S68.1,20,62.9,20C57.7,20,55.2,16.9,55.2,12.4z
			 M67.3,12.4c0-2.7-1.2-4.5-4.4-4.5s-4.4,1.8-4.4,4.5c0,2.7,1.2,4.5,4.4,4.5S67.3,15.1,67.3,12.4z"/>
		<path class="st0" d="M73.5,5.1h2.7l0.3,2.5c1.1-2.2,2.7-2.9,4.5-2.9c0.3,0,0.9,0.1,1.3,0.2v3.3c-0.9-0.3-1.8-0.3-2-0.3
			c-2.2,0-3.6,1.7-3.6,4.3v7.2h-3.2V5.1z"/>
		<path class="st0" d="M83.9,18.4l1.5-2.7c1.4,1,2.9,1.1,4.2,1.1c1.7,0,2.7-0.6,2.7-1.4c0-1-1.6-1.4-2.9-1.7
			c-2.7-0.6-5.1-1.6-5.1-4.7c0-2.6,1.9-4.3,5.4-4.3c1.4,0,3.3,0.2,5.2,1.3l-1.1,2.6c-1.3-0.5-3-0.8-4.1-0.8c-1.4,0-2.1,0.5-2.1,1.2
			c0,0.9,1.2,1.3,2.6,1.6c3,0.7,5.4,1.7,5.4,4.8c0,2.7-2.2,4.6-5.9,4.6C87.8,20,85.6,19.7,83.9,18.4z"/>
		<path class="st0" d="M97.6,12.4c0-4.5,2.5-7.6,7.7-7.6s7.7,3.1,7.7,7.6s-2.5,7.6-7.7,7.6S97.6,16.9,97.6,12.4z M109.8,12.4
			c0-2.7-1.2-4.5-4.4-4.5c-3.2,0-4.4,1.8-4.4,4.5c0,2.7,1.2,4.5,4.4,4.5C108.6,16.9,109.8,15.1,109.8,12.4z"/>
	</g>
	<ellipse class="st1" cx="119.7" cy="17.5" rx="2.5" ry="2.5"/>
	<ellipse class="st0" cx="21.6" cy="1.7" rx="1.7" ry="1.7"/>
</g>
</svg>
